<svg width="1220" height="493" viewBox="0 0 1220 493" fill="none" xmlns="http://www.w3.org/2000/svg">
<path d="M0 27.254C0 12.202 12.202 0 27.254 0H1192.75C1207.8 0 1220 12.202 1220 27.254V465.746C1220 480.798 1207.8 493 1192.75 493H27.254C12.202 493 0 480.798 0 465.746V27.254Z" fill="#49682F"/>
<g clip-path="url(#clip0_312_1030)">
<path d="M1101 142.708L1095.98 148.674L1096.22 140.888L1089 137.959L1096.48 135.778L1097.03 128L1101.42 134.444L1108.98 132.569L1104.21 138.734L1108.33 145.34L1101 142.708Z" fill="white"/>
<path d="M1185.57 249.678L1182.43 244.595L1176.56 245.775L1180.43 241.206L1177.49 235.997L1183.02 238.268L1187.07 233.861L1186.63 239.827L1192.07 242.315L1186.26 243.739L1185.57 249.678Z" fill="white"/>
<path d="M1174.06 95.0987V95.0847C1178.33 101.286 1183.44 107.054 1188.45 111.08C1178.52 116.82 1168.12 119.694 1157.73 119.694C1147.33 119.694 1136.93 116.82 1127 111.08C1127 111.08 1155.31 116.666 1174.06 95.0917V95.0987Z" fill="white"/>
<path d="M1144.32 90.5614C1142.62 89.8693 1140.93 89.0443 1139.27 88.0796C1139.27 88.0796 1159.78 88.2124 1165.49 75.2927L1165.46 75.2298C1168.34 80.1236 1172.3 84.9685 1176.17 88.0796C1174.51 89.0443 1172.82 89.8693 1171.12 90.5614C1171.12 90.5614 1154.71 110.556 1127 111.08C1133.21 106.082 1139.57 98.4125 1144.32 90.5614Z" fill="white"/>
<path d="M1150.78 73.8595C1150.8 73.8106 1150.83 73.7616 1150.85 73.7197C1149.5 73.2443 1148.16 72.6221 1146.83 71.8601C1146.83 71.8601 1146.93 71.8461 1147.1 71.8251C1147.01 71.8391 1146.92 71.8531 1146.83 71.8601C1149.33 69.8536 1151.9 66.6237 1153.62 63.4637C1155.41 60.2617 1156.58 57.0667 1157.72 53.9067L1154.03 56.3746L1155.23 52.096L1151.74 49.3415L1156.18 49.1667L1157.72 45L1159.26 49.1667L1163.7 49.3415L1160.21 52.096L1161.41 56.3746L1157.72 53.9067C1158.65 56.4865 1159.61 59.0942 1160.89 61.7019L1160.8 61.5201C1160.8 61.5201 1156.5 69.6648 1148.71 71.5385C1148.16 71.6573 1147.71 71.7342 1147.39 71.7831C1147.83 71.7202 1148.28 71.6433 1148.71 71.5385C1152.11 70.8184 1159.15 68.6511 1161.48 62.8484L1161.38 62.6387C1161.52 62.9184 1161.67 63.191 1161.82 63.4707C1163.55 66.6237 1166.12 69.8536 1168.61 71.867C1167.29 72.6291 1165.95 73.2513 1164.59 73.7267C1164.59 73.7407 1164.61 73.7477 1164.59 73.7267C1164.59 73.7267 1158.72 85.0943 1139.26 88.0935C1143.5 84.6888 1147.84 79.2148 1150.77 73.8665L1150.78 73.8595Z" fill="white"/>
<path d="M1033.09 57.9323C1033.89 57.4727 1034.67 57.0221 1035.46 56.5625C1035.4 56.7968 1035.34 57.0311 1035.28 57.2654C1035.11 57.8873 1036.07 58.1486 1036.23 57.5268C1036.38 56.968 1036.53 56.4093 1036.68 55.8595C1037.42 55.4359 1038.16 55.0033 1038.91 54.5798C1038.68 55.4359 1038.45 56.2921 1038.22 57.1573C1038.06 57.7791 1039.02 58.0405 1039.18 57.4186C1039.49 56.238 1039.81 55.0574 1040.12 53.8768C1040.86 53.4532 1041.6 53.0206 1042.35 52.5971C1041.88 54.3545 1041.4 56.1209 1040.94 57.8783C1040.77 58.5001 1041.73 58.7615 1041.89 58.1396C1042.45 56.0578 1043.01 53.9759 1043.57 51.8851C1044.31 51.4615 1045.04 51.0289 1045.79 50.6053C1045.13 53.1017 1044.45 55.6072 1043.78 58.1036C1043.62 58.7254 1044.58 58.9868 1044.74 58.3649C1045.5 55.5441 1046.25 52.7232 1047.01 49.9024C1047.61 49.5509 1048.21 49.2084 1048.81 48.857C1049.17 49.1454 1049.69 49.3256 1050.09 49.5599C1051.11 50.1547 1052.14 50.7405 1053.16 51.3353V53.4532C1051.09 55.517 1049.03 57.5809 1046.96 59.6447C1046.51 60.0953 1047.22 60.7982 1047.67 60.3476C1049.5 58.5181 1051.33 56.6886 1053.16 54.8591V57.4276C1051.63 58.9507 1050.11 60.4738 1048.59 61.9969C1048.14 62.4475 1048.84 63.1504 1049.29 62.6998C1050.58 61.4111 1051.87 60.1223 1053.16 58.8245V61.393C1052.3 62.2582 1051.44 63.1144 1050.58 63.9796C1050.13 64.4302 1050.83 65.1331 1051.28 64.6825C1051.91 64.0517 1052.54 63.4208 1053.16 62.799V65.3675C1052.76 65.773 1052.35 66.1786 1051.94 66.5931C1051.49 67.0437 1052.19 67.7467 1052.64 67.2961C1052.81 67.1249 1052.98 66.9536 1053.16 66.7734V69.5131C1053.16 70.153 1054.16 70.153 1054.16 69.5131V66.7734C1054.33 66.9446 1054.5 67.1158 1054.68 67.2961C1055.13 67.7467 1055.83 67.0437 1055.38 66.5931C1054.98 66.1876 1054.57 65.782 1054.16 65.3675V62.799C1054.79 63.4298 1055.42 64.0607 1056.04 64.6825C1056.49 65.1331 1057.19 64.4302 1056.74 63.9796C1055.88 63.1144 1055.02 62.2582 1054.16 61.393V58.8245C1055.44 60.1133 1056.73 61.4021 1058.03 62.6998C1058.48 63.1504 1059.18 62.4475 1058.73 61.9969C1057.21 60.4738 1055.69 58.9507 1054.16 57.4276V54.8591C1055.99 56.6886 1057.82 58.5181 1059.65 60.3476C1060.1 60.7982 1060.81 60.0953 1060.36 59.6447C1058.29 57.5809 1056.23 55.517 1054.16 53.4532V51.3353C1054.94 50.8847 1055.71 50.4341 1056.5 49.9925C1057.08 49.65 1057.68 49.3166 1058.27 48.9741C1058.33 48.9381 1058.42 48.893 1058.5 48.857C1059.1 49.2084 1059.72 49.5599 1060.32 49.9114C1061.08 52.7322 1061.83 55.5531 1062.59 58.3739C1062.75 58.9868 1063.72 58.7254 1063.55 58.1126C1062.88 55.6162 1062.2 53.1108 1061.54 50.6144C1062.28 51.0379 1063.01 51.4705 1063.76 51.8941C1064.32 53.9759 1064.88 56.0578 1065.44 58.1486C1065.6 58.7615 1066.57 58.5001 1066.39 57.8873C1065.93 56.1299 1065.45 54.3635 1064.98 52.6061C1065.72 53.0296 1066.46 53.4622 1067.21 53.8858C1067.52 55.0664 1067.84 56.247 1068.15 57.4276C1068.31 58.0405 1069.28 57.7791 1069.11 57.1663C1068.87 56.3101 1068.65 55.454 1068.41 54.5888C1069.15 55.0124 1069.89 55.4449 1070.64 55.8685C1070.79 56.4273 1070.94 56.986 1071.09 57.5358C1071.25 58.1576 1072.22 57.8873 1072.04 57.2744C1071.98 57.0401 1071.92 56.8058 1071.86 56.5715C1072.65 57.0311 1073.43 57.4817 1074.23 57.9413C1074.78 58.2658 1075.28 57.4006 1074.73 57.0852C1073.94 56.6255 1073.14 56.1749 1072.36 55.7153C1072.59 55.6522 1072.84 55.5891 1073.07 55.5261C1073.68 55.3638 1073.42 54.3995 1072.81 54.5707C1072.25 54.7149 1071.7 54.8682 1071.14 55.0124C1070.4 54.5888 1069.67 54.1562 1068.92 53.7326C1069.77 53.4983 1070.64 53.273 1071.5 53.0387C1072.11 52.8764 1071.85 51.9121 1071.23 52.0834C1070.05 52.3988 1068.88 52.7142 1067.7 53.0296C1066.96 52.6061 1066.22 52.1735 1065.47 51.7499C1067.24 51.2813 1069 50.8036 1070.77 50.335C1071.38 50.1728 1071.12 49.2084 1070.5 49.3797C1068.42 49.9384 1066.34 50.4972 1064.26 51.056C1063.52 50.6324 1062.78 50.1998 1062.03 49.7762C1064.54 49.1093 1067.03 48.4334 1069.54 47.7665C1070.15 47.6043 1069.89 46.6399 1069.28 46.8112C1066.46 47.5682 1063.65 48.3252 1060.82 49.0733C1060.22 48.7218 1059.62 48.3703 1059 48.0278C1059 47.9017 1058.99 47.7845 1058.99 47.6944V43.035C1059.6 42.6835 1060.21 42.3321 1060.82 41.9716C1063.65 42.7286 1066.46 43.4856 1069.28 44.2337C1069.9 44.3959 1070.16 43.4406 1069.54 43.2784C1067.03 42.6115 1064.54 41.9355 1062.03 41.2686C1062.77 40.845 1063.51 40.4125 1064.26 39.9889C1066.34 40.5476 1068.42 41.1064 1070.5 41.6652C1071.13 41.8274 1071.39 40.8721 1070.77 40.7099C1069 40.2412 1067.24 39.7636 1065.47 39.2949C1066.21 38.8714 1066.95 38.4388 1067.7 38.0152C1068.88 38.3306 1070.05 38.646 1071.23 38.9615C1071.86 39.1237 1072.12 38.1684 1071.5 38.0062C1070.64 37.7719 1069.77 37.5465 1068.92 37.3122C1069.66 36.8887 1070.4 36.4561 1071.14 36.0325C1071.7 36.1767 1072.25 36.3299 1072.81 36.4831C1073.43 36.6453 1073.69 35.69 1073.07 35.5278C1072.84 35.4647 1072.59 35.4016 1072.36 35.3385C1073.15 34.8789 1073.95 34.4283 1074.73 33.9687C1075.28 33.6532 1074.78 32.7881 1074.23 33.1125C1073.43 33.5721 1072.65 34.0227 1071.86 34.4824C1071.92 34.2481 1071.98 34.0137 1072.04 33.7794C1072.21 33.1576 1071.25 32.8962 1071.09 33.5181C1070.94 34.0768 1070.79 34.6356 1070.64 35.1943C1069.9 35.6179 1069.16 36.0505 1068.41 36.4741C1068.65 35.6179 1068.87 34.7618 1069.11 33.8966C1069.27 33.2747 1068.31 33.0134 1068.15 33.6352C1067.84 34.8158 1067.52 35.9964 1067.21 37.177C1066.47 37.6006 1065.73 38.0332 1064.98 38.4568C1065.45 36.6994 1065.93 34.933 1066.39 33.1756C1066.56 32.5537 1065.6 32.2924 1065.44 32.9142C1064.88 34.9961 1064.32 37.0779 1063.76 39.1688C1063.02 39.5923 1062.28 40.0249 1061.54 40.4485C1062.2 37.9521 1062.88 35.4467 1063.55 32.9503C1063.71 32.3284 1062.75 32.0671 1062.59 32.6889C1061.83 35.5098 1061.08 38.3306 1060.32 41.1515C1059.71 41.5029 1059.09 41.8544 1058.48 42.2149C1057.04 41.3858 1055.6 40.5476 1054.16 39.7185V37.6006C1056.23 35.5368 1058.29 33.473 1060.36 31.4092C1060.81 30.9586 1060.1 30.2556 1059.65 30.7062C1057.82 32.5357 1055.99 34.3652 1054.16 36.1947V33.6262C1055.69 32.1031 1057.21 30.5801 1058.73 29.057C1059.18 28.6064 1058.48 27.9034 1058.03 28.354C1056.74 29.6428 1055.45 30.9315 1054.16 32.2293V29.6608C1055.02 28.7956 1055.88 27.9395 1056.74 27.0743C1057.19 26.6237 1056.49 25.9207 1056.04 26.3713C1055.41 27.0022 1054.78 27.633 1054.16 28.2549V25.6864C1054.56 25.2808 1054.97 24.8753 1055.38 24.4607C1055.83 24.0101 1055.13 23.3071 1054.68 23.7578C1054.51 23.929 1054.34 24.1002 1054.16 24.2805V21.4776C1054.16 20.8378 1053.16 20.8378 1053.16 21.4776V24.2174C1052.99 24.0461 1052.82 23.8749 1052.64 23.6947C1052.19 23.2441 1051.49 23.947 1051.94 24.3976C1052.34 24.8032 1052.75 25.2087 1053.16 25.6233V28.1918C1052.53 27.5609 1051.9 26.9301 1051.28 26.3082C1050.83 25.8576 1050.13 26.5606 1050.58 27.0112C1051.44 27.8764 1052.3 28.7325 1053.16 29.5977V32.1662L1049.29 28.2909C1048.84 27.8403 1048.14 28.5433 1048.59 28.9939C1050.11 30.517 1051.63 32.04 1053.16 33.5631V36.1316C1051.33 34.3021 1049.5 32.4726 1047.67 30.6431C1047.22 30.1925 1046.51 30.8955 1046.96 31.3461C1049.03 33.4099 1051.09 35.4737 1053.16 37.5375V39.6554C1051.96 40.3494 1050.76 41.0343 1049.56 41.7282C1049.36 41.8454 1049.05 41.9716 1048.78 42.1248C1048.19 41.7823 1047.6 41.4399 1047 41.0884C1046.24 38.2675 1045.49 35.4467 1044.73 32.6258C1044.57 32.004 1043.6 32.2744 1043.77 32.8872C1044.44 35.3836 1045.12 37.889 1045.78 40.3854C1045.04 39.9618 1044.31 39.5292 1043.56 39.1057C1043 37.0238 1042.44 34.942 1041.88 32.8511C1041.72 32.2383 1040.75 32.4997 1040.93 33.1125C1041.39 34.8699 1041.87 36.6363 1042.34 38.3937C1041.6 37.9701 1040.86 37.5375 1040.12 37.114C1039.8 35.9333 1039.48 34.7527 1039.17 33.5721C1039.01 32.9593 1038.04 33.2206 1038.21 33.8335C1038.44 34.6897 1038.67 35.5458 1038.9 36.411C1038.16 35.9874 1037.42 35.5548 1036.67 35.1313C1036.52 34.5725 1036.38 34.0137 1036.22 33.455C1036.06 32.8421 1035.1 33.1035 1035.27 33.7163C1035.33 33.9506 1035.39 34.185 1035.46 34.4193C1034.66 33.9597 1033.88 33.509 1033.09 33.0494C1032.53 32.725 1032.03 33.5902 1032.58 33.9056C1033.37 34.3652 1034.17 34.8158 1034.95 35.2755C1034.72 35.3385 1034.47 35.4016 1034.24 35.4647C1033.62 35.6269 1033.89 36.5912 1034.5 36.42C1035.06 36.2758 1035.61 36.1226 1036.17 35.9694C1036.91 36.393 1037.65 36.8256 1038.39 37.2491C1037.54 37.4835 1036.67 37.7088 1035.82 37.9431C1035.2 38.1053 1035.46 39.0696 1036.08 38.8984C1037.26 38.583 1038.43 38.2675 1039.61 37.9521C1040.35 38.3757 1041.09 38.8083 1041.84 39.2318C1040.07 39.7005 1038.31 40.1781 1036.55 40.6468C1035.93 40.809 1036.19 41.7733 1036.81 41.6021C1038.89 41.0433 1040.97 40.4846 1043.05 39.9258C1043.79 40.3494 1044.53 40.782 1045.28 41.2055C1042.77 41.8724 1040.28 42.5484 1037.77 43.2153C1037.16 43.3775 1037.42 44.3418 1038.03 44.1706C1040.85 43.4135 1043.67 42.6565 1046.49 41.9085C1047.09 42.26 1047.7 42.6115 1048.31 42.9629C1048.31 43.0981 1048.33 43.2333 1048.33 43.3595C1048.33 44.8916 1048.31 46.4236 1048.33 47.9557C1047.71 48.3072 1047.1 48.6587 1046.49 49.0192C1043.67 48.2622 1040.85 47.5051 1038.03 46.7571C1037.41 46.5949 1037.15 47.5502 1037.77 47.7124C1040.28 48.3793 1042.77 49.0552 1045.28 49.7221C1044.54 50.1457 1043.8 50.5783 1043.05 51.0019C1040.97 50.4431 1038.89 49.8844 1036.81 49.3256C1036.19 49.1634 1035.92 50.1187 1036.55 50.2809C1038.31 50.7495 1040.07 51.2272 1041.84 51.6958C1041.1 52.1194 1040.36 52.552 1039.61 52.9756C1038.43 52.6601 1037.26 52.3447 1036.08 52.0293C1035.46 51.8671 1035.19 52.8224 1035.82 52.9846C1036.67 53.2189 1037.54 53.4442 1038.39 53.6785C1037.65 54.1021 1036.92 54.5347 1036.17 54.9583C1035.61 54.8141 1035.06 54.6609 1034.5 54.5167C1033.88 54.3545 1033.62 55.3098 1034.24 55.472C1034.47 55.5351 1034.72 55.5981 1034.95 55.6612C1034.16 56.1209 1033.36 56.5715 1032.58 57.0311C1032.03 57.3465 1032.53 58.2117 1033.09 57.8873L1033.09 57.9323ZM1049.12 43.4586C1049.59 43.729 1050.06 43.9993 1050.53 44.2697V46.7211C1050.07 46.9824 1049.61 47.2528 1049.15 47.5141C1049.14 47.1536 1049.08 46.7661 1049.08 46.5408V44.1796C1049.08 44.1075 1049.11 43.783 1049.13 43.4586H1049.12ZM1053.15 40.5116V42.1879L1051.03 43.4135C1050.54 43.1342 1050.06 42.8548 1049.58 42.5754C1049.63 42.5394 1049.68 42.5123 1049.73 42.4853C1050.87 41.8274 1052.01 41.1695 1053.15 40.5116ZM1057.72 42.5754C1057.23 42.8548 1056.74 43.1342 1056.26 43.4135L1054.15 42.1879V40.5567C1054.56 40.809 1055.03 41.0163 1055.44 41.2506C1056.2 41.6922 1056.97 42.1338 1057.72 42.5754H1057.72ZM1058.17 47.5322C1057.7 47.2618 1057.23 46.9914 1056.76 46.7211V44.2697C1057.25 43.9903 1057.73 43.7109 1058.21 43.4316V46.8112C1058.21 46.8923 1058.18 47.2077 1058.17 47.5322ZM1054.14 50.3981V48.8029L1056.26 47.5772C1056.73 47.8566 1057.22 48.136 1057.7 48.4154C1057.54 48.5145 1057.37 48.6136 1057.2 48.7128C1056.53 49.1003 1055.84 49.4968 1055.17 49.8844C1054.9 50.0376 1054.48 50.1998 1054.13 50.3981H1054.14ZM1049.57 48.4244C1050.06 48.145 1050.54 47.8656 1051.02 47.5862L1053.14 48.8119V50.4882C1052.57 50.1637 1052 49.8303 1051.43 49.5058C1050.81 49.1454 1050.18 48.7849 1049.56 48.4244H1049.57Z" fill="white"/>
<path d="M1209.56 171.812C1209.56 174.237 1207.6 176.201 1205.17 176.201C1202.75 176.201 1200.78 174.237 1200.78 171.812C1200.78 169.388 1202.75 167.423 1205.17 167.423C1207.6 167.423 1209.56 169.388 1209.56 171.812Z" fill="white"/>
<path d="M1071.89 200.78C1073.49 200.78 1074.78 199.486 1074.78 197.89C1074.78 196.294 1073.49 195 1071.89 195C1070.29 195 1069 196.294 1069 197.89C1069 199.486 1070.29 200.78 1071.89 200.78Z" fill="white"/>
<path d="M1049.62 104.705C1049.62 106.362 1048.28 107.705 1046.62 107.705C1044.96 107.705 1043.62 106.362 1043.62 104.705C1043.62 103.048 1044.96 101.705 1046.62 101.705C1048.28 101.705 1049.62 103.048 1049.62 104.705Z" fill="white"/>
<path d="M1177.39 29.778C1179.81 29.778 1181.78 27.813 1181.78 25.389C1181.78 22.965 1179.81 21 1177.39 21C1174.96 21 1173 22.965 1173 25.389C1173 27.813 1174.96 29.778 1177.39 29.778Z" fill="white"/>
<path d="M1165.23 179.661C1164.27 178.572 1164.38 176.91 1165.47 175.954C1166.56 174.998 1168.22 175.106 1169.18 176.195C1170.13 177.285 1170.03 178.947 1168.94 179.903C1167.85 180.859 1166.19 180.751 1165.23 179.661Z" fill="white"/>
<path d="M1150.95 219.692C1150 218.602 1150.1 216.94 1151.19 215.984C1152.28 215.028 1153.95 215.136 1154.9 216.226C1155.86 217.316 1155.75 218.977 1154.66 219.933C1153.57 220.889 1151.91 220.781 1150.95 219.692Z" fill="white"/>
<path d="M1132.88 195.793C1131.92 194.703 1132.03 193.042 1133.12 192.086C1134.21 191.13 1135.87 191.237 1136.83 192.327C1137.79 193.417 1137.68 195.078 1136.59 196.034C1135.5 196.99 1133.84 196.883 1132.88 195.793Z" fill="white"/>
<path d="M1170.85 197.832C1169.89 196.742 1170 195.08 1171.09 194.124C1172.18 193.168 1173.84 193.276 1174.8 194.366C1175.75 195.455 1175.64 197.117 1174.55 198.073C1173.46 199.029 1171.8 198.921 1170.85 197.832Z" fill="white"/>
<path d="M1153.6 217.996C1155.93 202.1 1154.21 184.378 1148.31 169.46C1145.67 162.771 1141.96 156.552 1137.11 151.223C1136.52 150.58 1135.51 151.472 1136.1 152.116C1146.6 163.66 1151.2 179.122 1152.58 194.4C1153.28 202.134 1153.38 210.204 1152.25 217.913C1152.12 218.773 1153.47 218.856 1153.59 218.001L1153.6 217.996Z" fill="white"/>
<path d="M1146.76 168.256C1154.03 169.167 1162.39 172.172 1166.7 178.372C1167.2 179.088 1168.2 178.188 1167.71 177.48C1163.2 170.981 1154.44 167.854 1146.84 166.906C1145.98 166.792 1145.9 168.143 1146.76 168.248L1146.76 168.256Z" fill="white"/>
<path d="M1152.38 186.418C1159.64 187.33 1168.01 190.335 1172.32 196.535C1172.81 197.251 1173.82 196.35 1173.33 195.642C1168.82 189.143 1160.06 186.016 1152.46 185.068C1151.6 184.955 1151.51 186.305 1152.37 186.41L1152.38 186.418Z" fill="white"/>
<path d="M1172.21 217.81C1171.25 216.72 1171.36 215.058 1172.45 214.102C1173.54 213.146 1175.2 213.254 1176.15 214.344C1177.11 215.433 1177 217.095 1175.91 218.051C1174.82 219.007 1173.16 218.899 1172.21 217.81Z" fill="white"/>
<path d="M1153.73 206.408C1161 207.32 1169.36 210.325 1173.67 216.525C1174.17 217.241 1175.17 216.34 1174.68 215.633C1170.17 209.133 1161.41 206.006 1153.81 205.058C1152.95 204.953 1152.87 206.295 1153.73 206.4L1153.73 206.408Z" fill="white"/>
<path d="M1149.03 175.088C1142.06 178.598 1133.69 185.418 1134.18 194.015C1134.23 194.872 1135.57 194.967 1135.52 194.102C1135.05 186.005 1143.03 179.614 1149.61 176.301C1150.38 175.909 1149.8 174.697 1149.02 175.085L1149.03 175.088Z" fill="white"/>
<path d="M1136.97 217.008C1136.02 215.919 1136.12 214.257 1137.21 213.301C1138.3 212.345 1139.96 212.453 1140.92 213.543C1141.88 214.632 1141.77 216.294 1140.68 217.25C1139.59 218.206 1137.93 218.098 1136.97 217.008Z" fill="white"/>
<path d="M1153.12 196.304C1146.15 199.813 1137.78 206.634 1138.27 215.23C1138.32 216.087 1139.66 216.183 1139.61 215.317C1139.14 207.22 1147.12 200.83 1153.7 197.516C1154.47 197.125 1153.89 195.912 1153.11 196.3L1153.12 196.304Z" fill="white"/>
<path d="M1202.88 338.938C1202.88 340.56 1201.56 341.876 1199.94 341.876C1198.32 341.876 1197 340.56 1197 338.938C1197 337.316 1198.32 336 1199.94 336C1201.56 336 1202.88 337.316 1202.88 338.938Z" fill="white"/>
<path d="M842.341 38.1038C842.738 38.221 843.125 38.3381 843.522 38.4553C843.332 38.5544 843.152 38.6535 842.963 38.7527C842.377 39.0681 842.9 39.9513 843.477 39.6359C843.954 39.3835 844.432 39.1222 844.909 38.8698C845.639 39.0861 846.369 39.3114 847.099 39.5277C846.387 39.9153 845.666 40.3028 844.955 40.6813C844.369 40.9967 844.891 41.8799 845.468 41.5645C846.478 41.0238 847.478 40.483 848.487 39.9423C849.217 40.1586 849.947 40.3839 850.677 40.6002C849.352 41.3122 848.028 42.0331 846.694 42.7451C846.108 43.0605 846.631 43.9437 847.208 43.6283C848.821 42.7541 850.443 41.889 852.056 41.0148C852.786 41.2311 853.516 41.4564 854.246 41.6727C852.227 42.7631 850.209 43.8446 848.19 44.9351C847.604 45.2505 848.127 46.1337 848.704 45.8183C851.011 44.5746 853.318 43.3309 855.634 42.0872C855.697 42.1052 855.76 42.1233 855.832 42.1503C855.85 42.1593 855.868 42.1773 855.877 42.1864C857.4 42.9975 858.932 43.7996 860.455 44.6107C859.32 45.8724 858.184 47.1251 857.04 48.3868C857.031 48.3868 857.013 48.3868 857.004 48.4048C856.986 48.4138 856.968 48.4229 856.95 48.4319C855.345 47.9722 853.741 47.5126 852.128 47.062C851.488 46.8818 851.218 47.8731 851.858 48.0534C853.128 48.4138 854.408 48.7834 855.679 49.1438C855.4 49.2971 855.12 49.4503 854.841 49.6125C853.723 49.297 852.606 48.9726 851.479 48.6572C850.839 48.4769 850.569 49.4683 851.209 49.6485C851.993 49.8738 852.786 50.0991 853.57 50.3244C853.291 50.4777 853.011 50.6309 852.732 50.7931C852.047 50.5948 851.353 50.3965 850.668 50.2073C850.028 50.027 849.758 51.0184 850.398 51.1986C850.758 51.2978 851.11 51.4059 851.47 51.5051C850.939 51.8025 850.407 52.0999 849.875 52.3973C849.298 52.7217 849.812 53.6049 850.389 53.2805C850.912 52.9831 851.443 52.6947 851.966 52.3973C851.867 52.7578 851.759 53.1183 851.66 53.4787C851.479 54.1186 852.471 54.389 852.651 53.7491C852.849 53.0642 853.038 52.3793 853.237 51.6943C853.516 51.5411 853.795 51.3879 854.075 51.2257C853.849 52.0188 853.624 52.8028 853.399 53.5959C853.219 54.2358 854.21 54.5061 854.39 53.8663C854.706 52.7487 855.03 51.6312 855.345 50.5137C855.625 50.3605 855.904 50.2073 856.184 50.0451C855.823 51.3248 855.454 52.5955 855.093 53.8753C854.913 54.5152 855.904 54.7855 856.084 54.1457C856.544 52.5415 856.995 50.9373 857.454 49.3331C857.481 49.3241 857.499 49.3061 857.526 49.2971C857.535 49.2971 857.544 49.279 857.553 49.279C859.212 48.9275 860.87 48.5671 862.528 48.2156C862.465 49.8558 862.402 51.5051 862.348 53.1453C862.33 53.1723 862.321 53.1994 862.303 53.2264C862.285 53.2805 862.258 53.3346 862.24 53.3796C859.806 54.425 857.364 55.4615 854.931 56.5069C854.327 56.7682 854.85 57.6514 855.445 57.3901C857.526 56.4979 859.617 55.6056 861.699 54.7134C861.411 55.4254 861.131 56.1374 860.843 56.8493C859.131 57.5793 857.418 58.3183 855.706 59.0483C855.102 59.3097 855.625 60.1929 856.22 59.9315C857.58 59.3457 858.941 58.769 860.311 58.1832C860.023 58.8951 859.743 59.6071 859.455 60.3191C858.382 60.7787 857.301 61.2383 856.229 61.6979C855.625 61.9593 856.148 62.8425 856.742 62.5812C857.463 62.2747 858.193 61.9593 858.914 61.6529C858.626 62.3649 858.346 63.0768 858.058 63.7888C857.535 64.0141 857.013 64.2394 856.49 64.4557C856.238 64.5639 856.175 64.9424 856.31 65.1587C856.463 65.42 856.751 65.4561 857.013 65.3389C857.184 65.2668 857.355 65.1947 857.526 65.1226C857.364 65.5282 857.202 65.9337 857.04 66.3393C856.796 66.9521 857.788 67.2135 858.031 66.6096C858.175 66.2401 858.328 65.8706 858.473 65.5011C858.563 65.7084 858.653 65.9247 858.743 66.132C858.851 66.3843 859.23 66.4474 859.446 66.3122C859.707 66.159 859.743 65.8706 859.626 65.6093C859.419 65.1226 859.212 64.645 859.004 64.1583C859.293 63.4463 859.572 62.7344 859.86 62.0224C860.185 62.7884 860.518 63.5455 860.843 64.3115C861.104 64.9153 861.987 64.3926 861.726 63.7978C861.284 62.7614 860.843 61.725 860.392 60.6886C860.681 59.9766 860.96 59.2646 861.248 58.5527C861.852 59.9586 862.447 61.3555 863.051 62.7614C863.312 63.3652 864.195 62.8425 863.934 62.2477C863.222 60.5714 862.501 58.8951 861.78 57.2279C862.068 56.5159 862.348 55.8039 862.636 55.0919C863.546 57.2188 864.457 59.3367 865.367 61.4636C865.628 62.0675 866.511 61.5447 866.25 60.9499C865.223 58.5527 864.204 56.1644 863.177 53.7671L863.195 53.7491C864.267 52.3702 865.331 51.0004 866.403 49.6215C867.476 51.0004 868.539 52.3702 869.612 53.7491C869.612 53.7491 869.621 53.7581 869.63 53.7671C868.602 56.1644 867.584 58.5527 866.556 60.9499C866.295 61.5537 867.187 62.0765 867.44 61.4636C868.35 59.3367 869.26 57.2188 870.17 55.0919C870.459 55.8039 870.738 56.5159 871.026 57.2279C870.305 58.9041 869.594 60.5804 868.873 62.2477C868.611 62.8515 869.503 63.3742 869.756 62.7614C870.36 61.3555 870.954 59.9586 871.558 58.5527C871.847 59.2646 872.126 59.9766 872.414 60.6886C871.973 61.725 871.531 62.7614 871.08 63.7978C870.819 64.4016 871.711 64.9244 871.964 64.3115C872.288 63.5455 872.622 62.7794 872.946 62.0224C873.234 62.7344 873.514 63.4463 873.802 64.1583C873.595 64.645 873.388 65.1226 873.18 65.6093C873.072 65.8616 873.099 66.159 873.361 66.3122C873.577 66.4384 873.955 66.3843 874.063 66.132L874.334 65.5011C874.478 65.8706 874.631 66.2401 874.775 66.6096C875.019 67.2135 876.01 66.9521 875.767 66.3393C875.605 65.9337 875.442 65.5282 875.28 65.1226C875.451 65.1947 875.623 65.2668 875.794 65.3389C876.046 65.4471 876.344 65.42 876.497 65.1587C876.623 64.9424 876.569 64.5639 876.317 64.4557C875.794 64.2304 875.271 64.0051 874.748 63.7888C874.46 63.0768 874.181 62.3649 873.892 61.6529C874.613 61.9593 875.343 62.2747 876.064 62.5812C876.668 62.8425 877.191 61.9503 876.578 61.6979C875.505 61.2383 874.424 60.7787 873.352 60.3191C873.063 59.6071 872.784 58.8951 872.495 58.1832C873.856 58.769 875.217 59.3457 876.587 59.9315C877.191 60.1839 877.713 59.3007 877.101 59.0483C875.388 58.3183 873.676 57.5793 871.964 56.8493C871.675 56.1374 871.396 55.4254 871.108 54.7134C873.189 55.6056 875.28 56.4979 877.362 57.3901C877.966 57.6514 878.488 56.7592 877.876 56.5069C875.442 55.4615 873 54.425 870.567 53.3796C870.549 53.3255 870.522 53.2715 870.504 53.2264C870.495 53.1994 870.477 53.1813 870.468 53.1543C870.405 51.5051 870.342 49.8648 870.287 48.2156C871.856 48.549 873.424 48.8915 874.992 49.225C875.019 49.252 875.055 49.279 875.1 49.3061C875.127 49.3151 875.145 49.3331 875.172 49.3421C875.632 50.9463 876.082 52.5505 876.542 54.1547C876.722 54.7855 877.713 54.5152 877.533 53.8843C877.173 52.6046 876.803 51.3338 876.443 50.0541C876.722 50.2073 877.001 50.3605 877.281 50.5227C877.596 51.6402 877.921 52.7578 878.236 53.8753C878.416 54.5061 879.408 54.2358 879.227 53.6049C879.002 52.8118 878.777 52.0278 878.551 51.2347C878.831 51.3879 879.11 51.5411 879.39 51.7033C879.588 52.3883 879.777 53.0732 879.975 53.7581C880.156 54.389 881.147 54.1186 880.967 53.4878C880.868 53.1273 880.759 52.7668 880.66 52.4063C881.183 52.7037 881.715 52.9921 882.237 53.2895C882.814 53.6139 883.328 52.7217 882.751 52.4063C882.219 52.1089 881.688 51.8115 881.156 51.5141C881.516 51.4149 881.868 51.3068 882.228 51.2076C882.859 51.0274 882.589 50.0361 881.958 50.2163C881.273 50.4146 880.579 50.6128 879.894 50.8021C879.615 50.6489 879.336 50.4957 879.056 50.3335C879.84 50.1082 880.633 49.8828 881.417 49.6575C882.048 49.4773 881.778 48.4859 881.147 48.6662C880.029 48.9816 878.912 49.3061 877.785 49.6215C877.506 49.4683 877.227 49.3151 876.947 49.1528C878.218 48.7924 879.498 48.4229 880.768 48.0624C881.399 47.8821 881.129 46.8908 880.498 47.071C878.93 47.5216 877.362 47.9632 875.794 48.4139C874.649 47.1521 873.514 45.8904 872.369 44.6287C873.784 43.8807 875.199 43.1327 876.614 42.3846C876.668 42.3846 876.722 42.3846 876.776 42.3666C876.848 42.3486 876.929 42.3215 877.001 42.2945C879.309 43.5382 881.616 44.7819 883.932 46.0256C884.517 46.341 885.031 45.4488 884.445 45.1424C882.427 44.0519 880.408 42.9704 878.389 41.8799C879.119 41.6637 879.849 41.4383 880.579 41.222C882.192 42.0962 883.815 42.9614 885.428 43.8356C886.013 44.151 886.527 43.2588 885.941 42.9524C884.617 42.2404 883.292 41.5195 881.958 40.8075C882.688 40.5912 883.418 40.3659 884.148 40.1496C885.157 40.6903 886.158 41.2311 887.167 41.7718C887.753 42.0872 888.266 41.195 887.681 40.8886C886.969 40.5011 886.248 40.1135 885.536 39.735C886.266 39.5187 886.996 39.2934 887.726 39.0771C888.203 39.3295 888.681 39.5908 889.159 39.8432C889.744 40.1586 890.258 39.2664 889.672 38.96C889.483 38.8608 889.303 38.7617 889.114 38.6626C889.51 38.5454 889.898 38.4282 890.294 38.3111C890.925 38.1218 890.655 37.1305 890.024 37.3197C889.627 37.4369 889.222 37.5631 888.825 37.6802C888.924 37.5 889.014 37.3287 889.114 37.1485C889.429 36.5627 888.546 36.049 888.23 36.6348C887.969 37.1215 887.708 37.6081 887.446 38.0948C886.716 38.3111 885.986 38.5364 885.256 38.7527C885.635 38.0497 886.013 37.3468 886.392 36.6348C886.707 36.049 885.815 35.5353 885.509 36.1211C884.959 37.1395 884.409 38.1579 883.869 39.1672C883.139 39.3835 882.409 39.6089 881.679 39.8251C882.391 38.5094 883.094 37.1936 883.806 35.8778C884.121 35.292 883.229 34.7783 882.922 35.3641C882.048 36.9953 881.165 38.6175 880.291 40.2487C879.561 40.465 878.831 40.6903 878.101 40.9066C879.182 38.8969 880.264 36.8871 881.345 34.8864C881.661 34.3006 880.777 33.7869 880.462 34.3727C879.218 36.6708 877.984 38.978 876.74 41.2761C875.046 41.0418 873.343 40.8075 871.648 40.5732C872.288 39.005 872.919 37.4459 873.559 35.8778C875.163 35.7336 876.758 35.5894 878.362 35.4452C879.011 35.3821 879.02 34.3637 878.362 34.4178C877.028 34.5349 875.686 34.6611 874.352 34.7783C874.559 34.5349 874.766 34.2826 874.974 34.0392C876.118 33.9401 877.254 33.832 878.398 33.7328C879.047 33.6697 879.056 32.6514 878.398 32.7054C877.56 32.7775 876.731 32.8586 875.893 32.9307C876.1 32.6874 876.307 32.4351 876.515 32.1917C877.209 32.1287 877.912 32.0656 878.606 32.0025C879.254 31.9394 879.263 30.921 878.606 30.9751C878.218 31.0111 877.831 31.0472 877.443 31.0832C877.822 30.6326 878.2 30.173 878.579 29.7134C879.002 29.2087 878.272 28.4787 877.858 28.9924C877.461 29.47 877.055 29.9477 876.659 30.4253C876.623 30.0648 876.596 29.7134 876.56 29.3529C876.497 28.704 875.478 28.695 875.532 29.3529C875.596 30.0829 875.668 30.8038 875.731 31.5338C875.523 31.7772 875.316 32.0295 875.109 32.2728C875.037 31.4708 874.965 30.6687 874.893 29.8666C874.83 29.2177 873.811 29.2087 873.865 29.8666C873.973 31.0382 874.082 32.2098 874.181 33.3814C873.973 33.6247 873.766 33.877 873.559 34.1204C873.442 32.8136 873.324 31.5068 873.207 30.2C873.144 29.5511 872.126 29.5421 872.18 30.2C872.333 31.8763 872.486 33.5526 872.64 35.2289C872.64 35.2289 872.631 35.2379 872.622 35.2469C872.595 35.2739 872.576 35.31 872.558 35.337C871.198 36.1932 869.837 37.0403 868.476 37.8965C867.98 36.3644 867.485 34.8233 866.989 33.2912C868.855 31.5068 870.72 29.7314 872.586 27.9469C873.063 27.4873 872.333 26.7663 871.865 27.226C870.215 28.8031 868.566 30.3803 866.917 31.9574C866.935 31.1914 866.953 30.4343 866.971 29.6683C868.305 28.3886 869.639 27.1178 870.972 25.8381C871.45 25.3785 870.72 24.6575 870.251 25.1171C869.17 26.1535 868.088 27.1809 867.007 28.2173C867.025 27.4513 867.043 26.6942 867.061 25.9282C867.89 25.1351 868.728 24.333 869.557 23.5399C870.035 23.0803 869.305 22.3593 868.836 22.819C868.26 23.3777 867.674 23.9275 867.097 24.4862C867.115 23.7202 867.133 22.9632 867.151 22.1971C867.548 21.8186 867.944 21.4311 868.35 21.0526C868.827 20.5929 868.098 19.8719 867.629 20.3316C867.485 20.4668 867.34 20.6109 867.187 20.7461C867.196 20.3316 867.205 19.908 867.214 19.4934C867.232 18.8355 866.205 18.8355 866.187 19.4934C866.178 19.899 866.169 20.3135 866.16 20.7191C866.016 20.5659 865.872 20.4127 865.727 20.2685C865.268 19.7908 864.547 20.5118 865.006 20.9895C865.385 21.386 865.754 21.7735 866.133 22.1701C866.115 22.9361 866.097 23.6932 866.079 24.4592C865.52 23.8734 864.961 23.2876 864.403 22.7018C863.943 22.2242 863.222 22.9541 863.682 23.4228C864.475 24.2519 865.259 25.081 866.052 25.9102C866.034 26.6762 866.016 27.4332 865.998 28.1993C864.961 27.1088 863.916 26.0273 862.88 24.9368C862.42 24.4592 861.699 25.1892 862.159 25.6578C863.429 26.9917 864.7 28.3165 865.971 29.6503C865.953 30.4163 865.935 31.1734 865.917 31.9394C864.33 30.2811 862.753 28.6229 861.167 26.9736C860.708 26.496 859.987 27.226 860.446 27.6946C862.249 29.5782 864.042 31.4617 865.844 33.3453C865.358 34.8684 864.862 36.3915 864.376 37.9055C862.943 37.0043 861.51 36.1031 860.068 35.2018C860.221 33.5346 860.365 31.8673 860.518 30.2C860.581 29.5421 859.554 29.5511 859.491 30.2C859.374 31.5068 859.257 32.8136 859.14 34.1204C858.932 33.877 858.725 33.6247 858.518 33.3814C858.626 32.2098 858.734 31.0382 858.833 29.8666C858.896 29.2087 857.869 29.2177 857.806 29.8666C857.734 30.6687 857.662 31.4708 857.589 32.2728C857.382 32.0295 857.175 31.7772 856.968 31.5338C857.031 30.8038 857.103 30.0829 857.166 29.3529C857.229 28.695 856.202 28.704 856.138 29.3529C856.102 29.7134 856.075 30.0648 856.039 30.4253C855.643 29.9477 855.237 29.47 854.841 28.9924C854.417 28.4877 853.696 29.2177 854.12 29.7134C854.498 30.173 854.877 30.6236 855.255 31.0832C854.868 31.0472 854.48 31.0111 854.093 30.9751C853.435 30.912 853.444 31.9394 854.093 32.0025C854.787 32.0656 855.49 32.1287 856.184 32.1917C856.391 32.4351 856.598 32.6874 856.805 32.9307C855.967 32.8586 855.138 32.7775 854.3 32.7054C853.642 32.6423 853.651 33.6697 854.3 33.7328C855.445 33.832 856.58 33.9401 857.725 34.0392C857.932 34.2826 858.139 34.5349 858.346 34.7783C857.013 34.6611 855.67 34.5349 854.336 34.4178C853.678 34.3547 853.687 35.3821 854.336 35.4452C855.985 35.5984 857.625 35.7426 859.275 35.8958C859.284 35.9138 859.302 35.9318 859.311 35.9408C859.942 37.4819 860.563 39.0321 861.194 40.5732C859.545 40.7985 857.896 41.0328 856.247 41.2581C856.22 41.2401 856.184 41.2311 856.148 41.213C856.075 41.195 856.012 41.168 855.94 41.1499C854.688 38.8338 853.444 36.5086 852.191 34.1925C851.876 33.6067 850.993 34.1294 851.308 34.7062C852.389 36.7159 853.471 38.7256 854.552 40.7264C853.822 40.5101 853.092 40.2848 852.362 40.0685C851.488 38.4372 850.605 36.815 849.731 35.1838C849.415 34.598 848.532 35.1207 848.848 35.6975C849.56 37.0133 850.263 38.3291 850.975 39.6449C850.245 39.4286 849.515 39.2033 848.785 38.987C848.235 37.9686 847.685 36.9502 847.144 35.9408C846.829 35.355 845.946 35.8778 846.261 36.4545C846.64 37.1575 847.018 37.8605 847.397 38.5724C846.667 38.3561 845.937 38.1308 845.207 37.9145C844.946 37.4279 844.684 36.9412 844.423 36.4545C844.107 35.8687 843.224 36.3915 843.54 36.9682C843.639 37.1395 843.729 37.3197 843.828 37.5C843.431 37.3828 843.026 37.2566 842.629 37.1395C841.999 36.9502 841.728 37.9416 842.359 38.1308L842.341 38.1038ZM868.476 39.0951C869.675 38.3381 870.873 37.5901 872.072 36.8331C871.531 38.1579 870.99 39.4827 870.459 40.8075C870.369 41.0418 870.567 41.4023 870.819 41.4383C872.243 41.6366 873.658 41.8349 875.082 42.0241C873.829 42.691 872.576 43.3489 871.324 44.0159C871.017 44.1781 871.008 44.5836 871.225 44.8179C872.162 45.8544 873.099 46.8998 874.045 47.9362C872.676 47.6388 871.306 47.3504 869.945 47.053C869.63 46.9899 869.287 47.1972 869.296 47.5487C869.35 48.9636 869.404 50.3785 869.449 51.7935C868.566 50.6669 867.692 49.5314 866.809 48.4048C866.701 48.2696 866.574 48.2156 866.448 48.2336C866.322 48.2246 866.196 48.2696 866.088 48.4048C865.205 49.5314 864.33 50.6669 863.447 51.7935C863.501 50.3785 863.555 48.9636 863.6 47.5487C863.609 47.1972 863.267 46.9899 862.952 47.053C861.582 47.3504 860.212 47.6388 858.851 47.9362C859.788 46.8998 860.726 45.8544 861.672 44.8179C861.879 44.5836 861.87 44.1781 861.564 44.0159C860.311 43.3489 859.058 42.691 857.806 42.0241C859.23 41.8259 860.645 41.6276 862.068 41.4383C862.321 41.4023 862.519 41.0418 862.429 40.8075C861.888 39.4827 861.347 38.1579 860.816 36.8331C862.014 37.5901 863.213 38.3381 864.412 39.0951C864.7 39.2754 865.069 39.0951 865.169 38.7887C865.601 37.4549 866.034 36.1211 866.457 34.7873C866.89 36.1211 867.313 37.4549 867.746 38.7887C867.845 39.0951 868.206 39.2754 868.503 39.0951H868.476Z" fill="white"/>
<path d="M932.93 26.1662L927.288 28.0588L930.542 23.075L927 18.2895L932.75 19.8486L936.21 15L936.499 20.9481L942.176 22.7415L936.616 24.8504L936.661 30.8075L932.93 26.1662Z" fill="white"/>
<path d="M1147.75 248.721C1147.75 246.119 1149.87 244 1152.48 244C1155.08 244 1157.2 246.119 1157.2 248.721C1157.2 251.322 1155.08 253.441 1152.48 253.441C1149.87 253.441 1147.75 251.322 1147.75 248.721ZM1148.43 248.721C1148.43 250.949 1150.24 252.771 1152.49 252.771C1154.73 252.771 1156.54 250.96 1156.54 248.721C1156.54 246.481 1154.73 244.67 1152.49 244.67C1150.24 244.67 1148.43 246.481 1148.43 248.721Z" fill="white"/>
<path d="M1148.53 259.534H1156.42C1157.75 259.534 1158.83 258.458 1158.83 257.13V253.167C1158.83 251.839 1157.75 250.762 1156.42 250.762H1148.53C1147.2 250.762 1146.12 251.839 1146.12 253.167V257.13C1146.12 258.458 1147.2 259.534 1148.53 259.534Z" fill="white"/>
<path d="M1163.94 312.492L1162.7 313.14L1163.27 312.766L1162.14 313.195L1163.57 312.525L1163.96 312.108L1164.41 312.075L1165.81 311.262L1164.67 312.053L1165.05 312.009L1163.94 312.492Z" fill="white"/>
<path d="M1172.28 306.388L1171.32 307.53L1171.67 306.871L1170.59 307.64L1171.82 306.465L1171.99 305.773L1172.54 305.719L1173.67 304.423L1172.83 305.675L1173.26 305.587L1172.28 306.388Z" fill="white"/>
<path d="M1178.47 297.364L1177.92 298.879L1178.05 298.001L1177.3 299.033L1178.08 297.463L1178.02 296.563L1178.51 296.486L1179.13 294.828L1178.75 296.431L1179.08 296.31L1178.47 297.364Z" fill="white"/>
<path d="M1180.89 286.562L1180.9 288.296L1180.79 287.286L1180.55 288.483L1180.68 286.672L1180.4 285.695L1180.69 285.596L1180.64 283.817L1180.83 285.519L1180.96 285.387L1180.89 286.562Z" fill="white"/>
<path d="M1178.93 275.935L1178.95 275.979L1179 276.122L1179.38 277.143L1179.19 276.627L1179.51 277.714L1178.95 276.1L1178.46 275.243L1178.56 275.145L1177.83 273.597L1178.56 275.079L1178.55 275.035L1178.93 275.935Z" fill="white"/>
<path d="M1180.98 287.956C1180.74 290.766 1180.68 291.348 1180.02 294.115C1179.81 294.795 1179.55 295.707 1179.31 296.376C1176.02 304.709 1170.01 310.56 1161.43 313.754C1166.83 311.251 1171.5 309.078 1176.04 302.513C1178.02 299.659 1181.29 293.643 1180.98 285.475C1180.98 286.222 1181.02 287.21 1180.98 287.956Z" fill="white"/>
<path d="M1154.61 258.239C1156.21 258.282 1157.2 258.458 1158.24 258.656L1158.37 258.678L1158.94 258.809C1157.08 258.436 1155.96 258.217 1153.7 258.239C1153.97 258.239 1154.34 258.228 1154.62 258.239" fill="white"/>
<path d="M1174.87 268.953L1174.92 269.019L1174.61 268.646L1174.87 268.953Z" fill="white"/>
<path d="M1173.43 267.273L1173.75 267.625L1173.21 267.054L1173.16 266.988L1173.43 267.273Z" fill="white"/>
<path d="M1164.76 260.873L1165.36 261.159L1164.79 260.884L1164.72 260.851L1164.76 260.873Z" fill="white"/>
<path d="M1164.03 260.533L1163.15 260.16L1163.58 260.335L1164.03 260.533Z" fill="white"/>
<path d="M1155.58 258.315L1157.13 258.48L1156.17 258.37L1157.19 258.513L1155.58 258.326L1154.54 258.271H1154.59L1153.68 258.249L1154.6 258.26H1154.61L1155.58 258.315Z" fill="white"/>
<path d="M1153.77 258.206L1154.01 258.14L1153.68 258.249L1153.86 258.129L1153.77 258.206Z" fill="white"/>
<path d="M1149.82 258.239L1148.11 258.414L1149.25 258.271L1148.36 258.359L1149.94 258.217L1151.05 258.162L1150.91 258.173L1152.57 258.184H1150.85L1150.76 258.206L1149.82 258.239Z" fill="white"/>
<path d="M1129.33 269.711L1129.75 269.14L1129.69 269.26L1129.33 269.711Z" fill="white"/>
<path d="M1136.43 263.135L1135.07 264.145L1135.92 263.409L1135.13 263.903L1136.45 262.992L1137.38 262.344L1137.28 262.476L1138.72 261.686L1137.26 262.564L1137.29 262.696L1136.43 263.135Z" fill="white"/>
<path d="M1145.91 259.128L1144.32 259.622L1145.29 259.248L1144.26 259.479L1145.9 259.062L1146.92 258.776L1146.9 258.842L1148.59 258.557L1146.91 258.875L1146.96 258.941L1145.91 259.128Z" fill="white"/>
<path d="M1153.74 258.239C1154.18 258.183 1154.76 258.184 1155.2 258.206C1155.29 258.206 1155.41 258.228 1155.51 258.239H1155.53C1154.71 258.161 1154.12 258.217 1153.7 258.25C1153.7 258.25 1153.73 258.25 1153.75 258.25" fill="white"/>
<path d="M1153.66 258.217C1153.66 258.217 1153.6 258.129 1153.58 258.085C1153.67 258.085 1153.8 258.085 1153.89 258.096C1153.82 258.118 1153.73 258.173 1153.69 258.239C1153.69 258.239 1153.67 258.217 1153.66 258.206" fill="white"/>
<path d="M1135.97 264.156C1133.98 265.55 1127.92 269.798 1125.3 277.34L1125.68 276.33L1126.08 275.32C1130.4 265.429 1139.23 261.675 1142.13 260.445C1142.68 260.247 1143.41 259.973 1143.97 259.797C1141.07 260.818 1138.37 262.3 1135.97 264.156Z" fill="white"/>
<path d="M1126.42 297.628C1127.45 300.394 1128.74 303.391 1132.28 306.992C1131.47 306.125 1130.41 304.939 1129.65 304.017C1129.27 303.468 1128.73 302.754 1128.36 302.184C1126.8 299.67 1125.85 297.606 1125.29 293.928C1125.59 295.191 1125.97 296.431 1126.42 297.617" fill="white"/>
<path d="M1125.04 295.015L1125.62 296.673L1125.16 295.487L1125.25 295.772L1124.66 293.807L1124.68 293.84L1124.32 292.259L1124.74 293.983L1124.94 294.214L1125.04 295.015Z" fill="white"/>
<path d="M1124.68 284.685L1124.57 284.893V286.178C1124.57 286.32 1124.57 286.452 1124.57 286.595L1124.33 285.42L1124.04 286.32L1124.24 284.641L1124.16 283.367L1124.4 283.642L1124.77 281.995L1124.61 283.795L1124.76 283.883C1124.73 284.147 1124.7 284.421 1124.68 284.685Z" fill="white"/>
<path d="M1179.38 277.143L1179 276.122L1179.52 277.516L1179.38 277.143Z" fill="white"/>
<path d="M1178.93 275.935L1178.55 275.035L1178.47 274.936L1178.93 275.935Z" fill="white"/>
<path d="M1161.48 313.667L1159.84 314.128L1160.89 313.875L1159.86 314.194L1161.48 313.711L1162.4 313.414L1162.44 313.37L1164 312.723L1162.44 313.337L1162.42 313.282L1161.48 313.667Z" fill="white"/>
<path d="M1170.41 308.518L1169.05 309.506L1169.99 308.946L1169.22 309.649L1170.52 308.606L1171.32 308.024L1171.26 307.936L1172.45 306.772L1171.2 307.881L1171.03 307.771L1170.41 308.518Z" fill="white"/>
<path d="M1176.59 300.186L1175.63 301.58L1176.47 300.8L1176.15 301.799L1176.93 300.317L1177.62 299.516L1177.35 299.395L1177.98 297.825L1177.14 299.318L1176.71 299.165L1176.59 300.186Z" fill="white"/>
<path d="M1178.87 289.855L1178.39 291.524L1179.08 290.569L1179.33 291.765L1179.45 289.998L1179.99 289.054L1179.47 288.911L1179.42 287.1L1179.11 288.823L1178.43 288.659L1178.87 289.855Z" fill="white"/>
<path d="M1177.04 278.866L1177.08 280.469L1177.55 279.547L1178.33 280.711L1177.79 278.998L1178.1 278.12L1177.42 277.988L1176.75 276.352L1176.97 277.911L1176.13 277.757L1177.04 278.866Z" fill="white"/>
<path d="M1157.19 314.281L1155.58 314.622L1156.71 314.435L1155.84 314.666L1157.39 314.314L1158.53 314.095L1158.3 314.062L1159.76 313.546L1158.16 314.04L1157.93 313.996L1157.19 314.281Z" fill="white"/>
<path d="M1165.08 309.901L1163.69 310.79L1164.89 310.285L1164.48 310.911L1165.61 309.978L1166.78 309.462L1166.25 309.374L1167.26 308.309L1165.91 309.319L1165.33 309.232L1165.08 309.901Z" fill="white"/>
<path d="M1169.95 302.184L1168.87 303.512L1170.11 302.754L1170.26 303.688L1170.84 302.293L1172.03 301.536L1171.15 301.426L1171.6 299.933L1170.59 301.349L1169.62 301.229L1169.95 302.184Z" fill="white"/>
<path d="M1171.29 292.336L1170.55 293.95L1171.77 293.017L1172.46 294.148L1172.47 292.457L1173.6 291.524L1172.45 291.414L1172.34 289.658L1171.71 291.337L1170.44 291.195L1171.29 292.336Z" fill="white"/>
<path d="M1169.43 281.336L1169.04 283.027L1170.13 282.039L1171.25 283.214L1170.76 281.446L1171.72 280.513L1170.43 280.403L1169.84 278.691L1169.61 280.326L1168.21 280.206L1169.43 281.336Z" fill="white"/>
<path d="M1152.45 314.874L1151.26 315.028L1152.07 314.951L1151.34 315.028L1152.59 314.885L1153.49 314.753L1153.3 314.742L1154.43 314.413L1153.19 314.732L1153.01 314.721L1152.45 314.874Z" fill="white"/>
<path d="M1158.07 311.592L1157.02 312.338L1158.05 311.91L1157.92 312.404L1158.7 311.636L1159.81 311.175L1159.14 311.131L1159.81 310.209L1158.72 311.098L1158.03 311.043L1158.07 311.592Z" fill="white"/>
<path d="M1160.75 304.774L1159.86 305.993L1161.11 305.279L1161.58 306.103L1161.86 304.84L1163.15 304.116L1162.01 304.05L1162.18 302.678L1161.29 303.995L1160.11 303.918L1160.75 304.774Z" fill="white"/>
<path d="M1160.56 295.597L1159.82 297.156L1161.19 296.223L1162.19 297.265L1162.03 295.674L1163.42 294.751L1161.91 294.686L1161.68 293.017L1160.98 294.642L1159.41 294.554L1160.56 295.597Z" fill="white"/>
<path d="M1158.21 284.959L1157.62 286.705L1159.04 285.651L1160.37 286.814L1159.9 285.025L1161.29 283.993L1159.6 283.938L1159.09 282.149L1158.57 283.894L1156.82 283.828L1158.21 284.959Z" fill="white"/>
<path d="M1159.37 258.93C1174.96 263.102 1184.65 281.292 1179.31 296.376C1179.53 295.696 1179.84 294.806 1180.02 294.115C1180.63 291.469 1180.77 290.843 1180.98 287.956C1180.98 287.21 1181.01 286.222 1180.98 285.475C1179.39 263.969 1159.13 258.864 1158.92 258.82L1158.35 258.689L1158.21 258.667C1158.55 258.744 1159.02 258.842 1159.35 258.93" fill="white"/>
<path d="M1173.69 267.614L1174.67 268.843L1174.18 268.141L1174.87 268.953L1174.61 268.646L1173.83 267.724L1173.75 267.625L1173.43 267.273L1173.16 266.988L1173.14 266.966L1171.93 265.78L1173.05 266.911L1172.85 266.79L1173.69 267.614Z" fill="white"/>
<path d="M1165.42 261.225L1166.74 261.982L1166.04 261.543L1167.05 262.103L1165.59 261.279L1165.36 261.159L1164.77 260.873L1164.72 260.851L1164.69 260.829L1164.03 260.533L1163.58 260.335L1164.59 260.796L1164.39 260.731L1165.42 261.225Z" fill="white"/>
<path d="M1172.32 269.908L1172.75 271.237L1172.99 270.468L1174.06 271.434L1173.08 270.029L1173.16 269.304L1172.46 269.195L1171.4 267.888L1172.01 269.129L1171.18 269.008L1172.32 269.908Z" fill="white"/>
<path d="M1165.41 262.685L1166.15 263.596L1166.1 263.069L1167.24 263.728L1166.03 262.761L1165.83 262.289L1165.28 262.224L1164.04 261.389L1164.93 262.18L1164.29 262.092L1165.41 262.685Z" fill="white"/>
<path d="M1157.91 258.678L1158.83 259.029L1158.44 258.82L1159.39 259.095L1158.16 258.711L1157.63 258.557L1157.43 258.535L1156.29 258.326H1156.28L1157.3 258.513L1157.06 258.491L1157.91 258.678Z" fill="white"/>
<path d="M1165.56 271.961L1165.45 273.388L1166.34 272.543L1167.62 273.542L1166.84 272.049L1167.6 271.258L1166.36 271.171L1165.56 269.765L1165.58 271.116L1164.25 271.017L1165.56 271.961Z" fill="white"/>
<path d="M1160.62 264.112L1160.7 265.144L1161.32 264.529L1162.5 265.253L1161.65 264.178L1162.14 263.618L1161.16 263.563L1160.35 262.608L1160.54 263.53L1159.5 263.464L1160.62 264.112Z" fill="white"/>
<path d="M1156.21 259.249L1156.38 259.753L1156.68 259.446L1157.49 259.808L1156.8 259.27L1156.93 259.029L1156.41 259.007L1155.8 258.623L1156.08 258.985L1155.53 258.952L1156.21 259.249Z" fill="white"/>
<path d="M1155.09 275.079L1154.56 276.638L1155.93 275.683L1157.32 276.715L1156.74 275.123L1158.04 274.223L1156.39 274.19L1155.84 272.664L1155.39 274.157L1153.71 274.113L1155.09 275.079Z" fill="white"/>
<path d="M1152.14 266.461L1151.6 267.669L1152.82 266.911L1153.97 267.702L1153.51 266.483L1154.62 265.802L1153.26 265.78L1152.88 264.672L1152.43 265.769L1151.06 265.747L1152.14 266.461Z" fill="white"/>
<path d="M1150.85 260.5L1150.25 261.225L1151.21 260.763L1151.89 261.225L1151.75 260.511L1152.57 260.116H1151.71L1151.69 259.534L1151.18 260.105H1150.31L1150.85 260.5Z" fill="white"/>
<path d="M1152.5 313.458L1152.06 313.996L1152.58 313.678L1152.62 314.007L1152.93 313.469L1153.6 313.107H1153.09L1153.29 312.415L1152.78 313.096L1152.27 313.074L1152.5 313.458Z" fill="white"/>
<path d="M1152.28 307.991L1151.88 309.056L1152.74 308.408L1153.43 309.078L1153.3 308.002L1154.29 307.343L1153.2 307.321L1152.99 306.125L1152.54 307.31L1151.43 307.288L1152.28 307.991Z" fill="white"/>
<path d="M1149.84 299.834L1149.43 301.283L1150.59 300.394L1151.77 301.305L1151.32 299.845L1152.58 298.956L1151.04 298.945L1150.54 297.408L1150.1 298.934L1148.54 298.923L1149.84 299.834Z" fill="white"/>
<path d="M1146.22 289.91L1145.74 291.612L1147.11 290.547L1148.56 291.601L1147.97 289.91L1149.42 288.856L1147.62 288.867L1147.05 287.133L1146.53 288.878H1144.74L1146.22 289.91Z" fill="white"/>
<path d="M1150.41 314.622L1150.84 314.929L1150.63 314.742L1150.92 314.918L1150.56 314.611L1150.55 314.369L1150.32 314.38L1149.87 313.919L1150.19 314.391H1149.96L1150.41 314.622Z" fill="white"/>
<path d="M1146.23 310.505L1146.6 311.394L1146.8 310.834L1147.68 311.361L1146.98 310.483L1147.39 309.879L1146.54 309.912L1145.79 308.902L1146.04 309.934L1145.25 309.956L1146.23 310.505Z" fill="white"/>
<path d="M1140.87 303.457L1141.1 304.796L1141.63 303.929L1142.85 304.709L1142 303.402L1142.72 302.535L1141.48 302.59L1140.65 301.207L1140.77 302.634L1139.62 302.689L1140.87 303.457Z" fill="white"/>
<path d="M1135.66 294.378L1135.65 296.014L1136.43 294.938L1137.72 295.86L1136.96 294.29L1137.9 293.215L1136.5 293.313L1135.82 291.678L1135.7 293.368L1134.42 293.467L1135.66 294.378Z" fill="white"/>
<path d="M1151.08 315.05L1150.11 314.841L1151.08 315.05Z" fill="white"/>
<path d="M1144.13 312.492L1145.24 313.184L1144.74 312.733L1145.72 313.118L1144.48 312.448L1144.17 311.943L1143.75 312.009L1142.51 311.197L1143.51 312.042L1143.12 312.086L1144.13 312.492Z" fill="white"/>
<path d="M1136.25 306.663L1137.13 307.837L1136.93 307.047L1138.07 307.684L1136.87 306.564V305.74L1136.16 305.85L1135.02 304.632L1135.77 305.916L1135.15 306.015L1136.25 306.663Z" fill="white"/>
<path d="M1129.62 298.528L1130.15 300.054L1130.23 299.011L1131.26 299.823L1130.32 298.374L1130.58 297.309L1129.79 297.474L1128.96 295.959L1129.35 297.573L1128.69 297.727L1129.62 298.528Z" fill="white"/>
<path d="M1146.3 314.237L1147.93 314.622L1146.93 314.369L1147.95 314.578L1146.34 314.194L1145.46 313.875L1145.39 313.919L1143.79 313.403L1145.34 313.952L1145.28 313.996L1146.3 314.237Z" fill="white"/>
<path d="M1136.72 310.055L1138.1 310.999L1137.3 310.351L1138.28 310.823L1136.86 309.945L1136.21 309.253L1136.02 309.374L1134.67 308.375L1135.93 309.451L1135.81 309.572L1136.72 310.055Z" fill="white"/>
<path d="M1129.22 303.227L1130.23 304.599L1129.61 303.633L1130.33 304.313L1129.28 303.051L1128.82 302.063L1128.69 302.26L1127.78 300.91L1128.64 302.37V302.557L1129.22 303.227Z" fill="white"/>
<path d="M1143.08 279.821L1142.44 281.545L1143.89 280.436L1145.29 281.49L1144.79 279.788L1146.31 278.745L1144.52 278.778L1144.12 277.132L1143.46 278.8L1141.77 278.822L1143.08 279.821Z" fill="white"/>
<path d="M1141.49 270.303L1140.66 271.731L1142.07 270.797L1143.07 271.643L1142.91 270.259L1144.33 269.403L1142.86 269.447L1142.84 268.152L1142 269.48L1140.62 269.524L1141.49 270.303Z" fill="white"/>
<path d="M1142.7 263.036L1141.66 264.024L1142.92 263.365L1143.36 263.936L1143.68 262.981L1144.9 262.399L1143.91 262.443L1144.38 261.609L1143.34 262.476L1142.42 262.52L1142.7 263.036Z" fill="white"/>
<path d="M1147.02 258.908L1145.78 259.369L1146.87 259.04L1146.68 259.303L1147.5 258.875L1148.5 258.623L1148.04 258.656L1148.98 258.37L1147.76 258.667L1147.34 258.7L1147.02 258.908Z" fill="white"/>
<path d="M1132.24 284.674L1131.89 286.463L1132.87 285.266L1133.95 286.276L1133.49 284.553L1134.61 283.367L1133.26 283.499L1132.95 281.775L1132.49 283.576L1131.26 283.697L1132.24 284.674Z" fill="white"/>
<path d="M1131.54 274.519L1130.75 276.122L1131.88 275.035L1132.5 275.902L1132.58 274.387L1133.79 273.366L1132.67 273.509L1132.9 272.071L1132.03 273.586L1131.05 273.707L1131.54 274.519Z" fill="white"/>
<path d="M1134.48 266.209L1133.32 267.438L1134.48 266.582L1134.55 267.23L1135.2 266.099L1136.4 265.319L1135.63 265.44L1136.44 264.397L1135.21 265.506L1134.55 265.627L1134.48 266.209Z" fill="white"/>
<path d="M1140.79 260.654L1139.32 261.411L1140.47 260.873L1140.01 261.257L1141.18 260.566L1142.34 260.116L1141.92 260.193L1143.22 259.633L1141.69 260.237L1141.36 260.313L1140.79 260.654Z" fill="white"/>
<path d="M1125.74 289.416L1125.83 291.184L1126.13 289.965L1126.84 290.876L1126.37 289.23L1126.84 288.022L1126.13 288.22L1125.81 286.54L1125.73 288.34L1125.17 288.527L1125.74 289.416Z" fill="white"/>
<path d="M1125.33 279.042L1124.85 280.776L1125.39 279.558L1125.58 280.447L1125.76 278.844L1126.46 277.681L1125.93 277.889L1126.3 276.352L1125.67 278.021L1125.3 278.219L1125.33 279.042Z" fill="white"/>
<path d="M1128.92 270.314L1128.56 271.017L1129.39 269.722L1130.22 268.777L1129.93 268.964L1130.92 267.756L1129.81 269.074L1129.76 269.14L1129.33 269.711L1129.18 269.908L1128.21 271.335L1128.92 270.314Z" fill="white"/>
<path d="M1155.48 258.239C1155.62 258.26 1170.15 260.829 1175.51 283.642C1176.74 288.867 1178.42 301.92 1167.66 310.121C1163.71 313.129 1159.69 314.062 1157.75 314.512C1177.62 312.042 1188.03 281.732 1163.38 262.026C1159.4 258.842 1156.69 258.414 1155.53 258.228H1155.51C1155.42 258.217 1155.3 258.206 1155.2 258.195C1155.28 258.206 1155.39 258.217 1155.48 258.228" fill="white"/>
<path d="M1153.6 258.107C1163.98 269.689 1178.96 310.67 1153.44 314.874C1161.28 314.227 1169.29 307.321 1169.54 293.346C1169.82 276.759 1154.57 258.557 1154.42 258.414C1154.28 258.294 1154.06 258.162 1153.88 258.096H1153.56C1153.56 258.096 1153.57 258.096 1153.59 258.096" fill="white"/>
<path d="M1151.18 258.118C1148.33 258.612 1145.09 259.183 1154.53 291.996C1157.16 301.119 1160.75 313.623 1151.08 315.05C1162.6 313.381 1159.62 292.051 1153.16 277.955C1146.87 264.244 1148.43 258.7 1151.98 258.085C1151.76 258.085 1151.48 258.107 1151.26 258.118C1151.23 258.118 1151.2 258.118 1151.18 258.118Z" fill="white"/>
<path d="M1146.76 258.678C1132.32 262.652 1138.07 287.067 1146.76 303.139C1150.17 309.44 1152.16 313.381 1151.09 315.05C1152.52 313.217 1149.95 304.621 1142.74 287.166C1133.59 265.012 1142.44 259.611 1148.53 258.37C1148.23 258.414 1147.83 258.469 1147.52 258.513C1147.29 258.568 1146.99 258.634 1146.77 258.689" fill="white"/>
<path d="M1139.65 261.049C1115.03 273.805 1136.75 310.011 1151.09 315.05C1143.2 312.031 1131.51 293.171 1129.56 282.654C1128.12 274.947 1131.07 265.1 1140.91 260.5C1141.63 260.171 1142.59 259.797 1143.34 259.534C1142.54 259.83 1141.48 260.226 1140.7 260.566L1140.22 260.785C1140.06 260.862 1139.84 260.972 1139.67 261.049" fill="white"/>
<path d="M1124.83 278.91C1120.28 296.266 1135.2 312.591 1151.08 315.05C1139.45 313.107 1117.96 296.08 1126.08 275.331L1125.68 276.341L1125.3 277.351C1125.16 277.823 1124.95 278.438 1124.83 278.91Z" fill="white"/>
<path d="M1132.67 307.365C1139.19 313.381 1147.01 314.764 1151.09 315.05C1137.09 313.875 1130.16 304.917 1128.37 302.195C1128.76 302.743 1129.26 303.49 1129.67 304.028C1130.43 304.939 1131.47 306.136 1132.3 307.003C1132.41 307.113 1132.56 307.266 1132.68 307.365" fill="white"/>
<path d="M1125.44 296.299L1124.94 294.784L1124.65 293.599L1124.66 293.807L1125.25 295.772L1125.44 296.299Z" fill="white"/>
</g>
<path d="M86.507 240.384L79 242.465L83.5871 236.175L79.2884 229.677L86.6873 232.101L91.5358 226L91.5177 233.796L98.8175 236.517L91.4096 238.915L91.0671 246.692L86.507 240.384Z" fill="white"/>
<path d="M79.3889 27.778C81.8128 27.778 83.7777 25.8129 83.7777 23.389C83.7777 20.965 81.8128 19 79.3889 19C76.965 19 75 20.965 75 23.389C75 25.8129 76.965 27.778 79.3889 27.778Z" fill="white"/>
<path d="M143.89 136.78C145.486 136.78 146.78 135.486 146.78 133.89C146.78 132.294 145.486 131 143.89 131C142.294 131 141 132.294 141 133.89C141 135.486 142.294 136.78 143.89 136.78Z" fill="white"/>
<path d="M238.389 21.778C240.813 21.778 242.778 19.8129 242.778 17.389C242.778 14.965 240.813 13 238.389 13C235.965 13 234 14.965 234 17.389C234 19.8129 235.965 21.778 238.389 21.778Z" fill="white"/>
<path d="M21.3889 255.778C23.8128 255.778 25.7777 253.813 25.7777 251.389C25.7777 248.965 23.8128 247 21.3889 247C18.965 247 17 248.965 17 251.389C17 253.813 18.965 255.778 21.3889 255.778Z" fill="white"/>
<path d="M94.004 118.708L88.9843 124.674L89.2186 116.888L82 113.959L89.48 111.778L90.0297 104L94.4186 110.444L101.98 108.569L97.2124 114.734L101.331 121.34L94.004 118.708Z" fill="white"/>
<path d="M67.7936 89.5689C67.7936 92.5526 65.352 95 62.3626 95H48.7168V69.8926H67.7879V89.5746L67.7936 89.5689Z" fill="white"/>
<path d="M46.6061 94.9943H32.9603C29.9767 94.9943 27.5293 92.5526 27.5293 89.5632V69.8812H46.6004V94.9886L46.6061 94.9943Z" fill="white"/>
<path d="M31.0887 58.1279H45.4305C45.4305 57.9396 45.459 57.7628 45.5047 57.5859L37.9173 55.6919L40.6328 52.1662L45.9725 56.6845C46.3832 56.1996 46.9879 55.8858 47.6725 55.8858C48.2943 55.8858 48.8591 56.1426 49.2641 56.5533L56.9199 49L59.8579 54.1401L49.7833 57.4376C49.8574 57.6544 49.9031 57.8883 49.9031 58.1279H64.2449C67.0517 58.1279 69.345 60.5696 69.345 63.559V65.6185C69.345 66.0007 69.305 66.3715 69.2366 66.7309H48.7279V60.0961C48.4141 60.2672 48.0547 60.3756 47.6725 60.3756C47.2903 60.3756 46.9309 60.2672 46.6171 60.0961V66.7309H26.1084C26.0399 66.3715 26 66.0007 26 65.6185V63.559C26 60.5753 28.2933 58.1279 31.1001 58.1279H31.0887Z" fill="white"/>
<path d="M150.524 52.0923L152.226 55.5434L156.032 56.0955L153.278 58.7775L153.929 62.5704L150.524 60.7758L147.119 62.5704L147.77 58.7775L145.016 56.0955L148.822 55.5434L150.524 52.0923Z" fill="white"/>
<path d="M117.599 49.1934C118.177 49.3578 118.756 49.5221 119.334 49.6864C119.084 49.8245 118.835 49.9625 118.585 50.1071C117.638 50.633 118.486 52.0858 119.433 51.5599C120.162 51.1523 120.892 50.7448 121.622 50.3372C122.713 50.6462 123.811 50.9617 124.902 51.2706C123.837 51.8623 122.772 52.4539 121.714 53.0455C120.767 53.5713 121.615 55.0241 122.562 54.4982C124.106 53.6371 125.645 52.776 127.189 51.9214C128.28 52.2304 129.378 52.5459 130.469 52.8548C128.465 53.9723 126.466 55.0832 124.461 56.2007C123.515 56.7266 124.363 58.1793 125.309 57.6534C127.794 56.273 130.272 54.886 132.757 53.5056C133.848 53.8146 134.946 54.1301 136.037 54.439C132.974 56.1481 129.904 57.8572 126.841 59.5597C125.894 60.0856 126.742 61.5383 127.689 61.0125C131.206 59.0536 134.729 57.0881 138.252 55.1292C140.06 56.8909 141.867 58.6526 143.675 60.4208C143.235 62.9779 142.801 65.5284 142.36 68.0855C142.36 68.1052 142.36 68.1315 142.354 68.1512C138.397 69.0649 134.44 69.972 130.476 70.8857C129.418 71.129 129.871 72.7526 130.923 72.5094C134.328 71.7271 137.726 70.9449 141.131 70.1561C140.526 71.1224 139.922 72.0821 139.324 73.0484C136.536 73.6926 133.749 74.3302 130.969 74.9744C129.911 75.2176 130.364 76.8413 131.416 76.598C133.631 76.0853 135.846 75.5792 138.061 75.0664C137.457 76.0327 136.852 76.9924 136.254 77.9587C134.512 78.3597 132.777 78.7607 131.035 79.1617C129.976 79.4049 130.43 81.0285 131.482 80.7853C132.652 80.5158 133.822 80.2463 134.992 79.9768C134.387 80.9431 133.789 81.9028 133.184 82.8691C132.356 83.0597 131.521 83.2503 130.693 83.441C129.635 83.6842 130.088 85.3078 131.14 85.0646C131.403 85.0054 131.666 84.9463 131.922 84.8806C131.6 85.3999 131.271 85.9192 130.949 86.4384C130.371 87.3587 131.83 88.2067 132.402 87.2864C132.717 86.7803 133.033 86.2807 133.348 85.7745C133.414 86.0572 133.48 86.3464 133.546 86.6291C133.789 87.6874 135.412 87.2338 135.169 86.1821C134.985 85.3736 134.795 84.565 134.611 83.7565C135.215 82.7902 135.813 81.8305 136.418 80.8642C136.694 82.054 136.97 83.2503 137.24 84.4401C137.483 85.4985 139.107 85.0449 138.863 83.9931C138.469 82.2775 138.075 80.5618 137.68 78.8461C138.285 77.8799 138.883 76.9201 139.488 75.9538C140.001 78.1954 140.52 80.4303 141.033 82.6719C141.276 83.7302 142.899 83.2766 142.656 82.2249C142.019 79.4641 141.381 76.6966 140.75 73.9358C141.355 72.9695 141.959 72.0098 142.558 71.0435C143.346 74.4683 144.135 77.893 144.924 81.3178C145.167 82.3761 146.791 81.9225 146.548 80.8708C145.64 76.9201 144.727 72.9761 143.82 69.0255C143.853 68.9663 143.892 68.9137 143.925 68.8545C146.127 67.6976 148.322 66.5407 150.524 65.3838C152.766 66.5604 155.007 67.7436 157.255 68.9203C157.282 68.9597 157.301 68.9926 157.328 69.032C156.421 72.9827 155.507 76.9267 154.6 80.8773C154.357 81.9357 155.98 82.3827 156.223 81.3243C157.012 77.8996 157.801 74.4748 158.59 71.0501C159.195 72.0164 159.799 72.9761 160.397 73.9424C159.76 76.7032 159.122 79.4706 158.491 82.2315C158.248 83.2898 159.872 83.7302 160.115 82.6785C160.627 80.4369 161.147 78.202 161.659 75.9604C162.264 76.9267 162.869 77.8864 163.467 78.8527C163.073 80.5684 162.678 82.284 162.284 83.9997C162.041 85.058 163.664 85.505 163.908 84.4467C164.184 83.2569 164.46 82.0606 164.729 80.8708C165.334 81.8371 165.932 82.7968 166.537 83.7631C166.353 84.5716 166.162 85.3801 165.978 86.1887C165.735 87.247 167.358 87.6874 167.602 86.6357C167.667 86.353 167.733 86.0638 167.799 85.7811C168.114 86.2873 168.43 86.7868 168.745 87.293C169.317 88.2067 170.777 87.3653 170.198 86.445C169.876 85.9257 169.547 85.4064 169.225 84.8871C169.488 84.9463 169.751 85.0054 170.008 85.0712C171.066 85.3144 171.506 83.6908 170.455 83.4475C169.626 83.2569 168.791 83.0663 167.963 82.8757C167.358 81.9094 166.754 80.9496 166.156 79.9833C167.326 80.2529 168.496 80.5224 169.666 80.7919C170.724 81.0351 171.171 79.4115 170.113 79.1682C168.371 78.7673 166.635 78.3663 164.9 77.9653C164.295 76.999 163.697 76.0393 163.092 75.073C165.308 75.5857 167.523 76.0919 169.745 76.6046C170.803 76.8478 171.25 75.2242 170.192 74.981C167.405 74.3368 164.617 73.6992 161.837 73.055C161.232 72.0887 160.634 71.129 160.029 70.1627C163.434 70.9449 166.833 71.7271 170.238 72.5159C171.296 72.7592 171.743 71.1355 170.685 70.8923C166.714 69.9786 162.744 69.0649 158.767 68.1512C158.741 68.1117 158.721 68.0789 158.695 68.0394C158.261 65.5021 157.821 62.9582 157.387 60.4208C159.188 58.6657 160.982 56.9172 162.784 55.1621C162.836 55.149 162.895 55.1292 162.948 55.1161C166.491 57.0881 170.04 59.0667 173.583 61.0387C174.53 61.5646 175.378 60.1119 174.431 59.586C171.368 57.8769 168.298 56.1678 165.235 54.4653C166.326 54.1564 167.424 53.8409 168.515 53.5319C171 54.9123 173.478 56.2993 175.963 57.6797C176.909 58.2056 177.757 56.7529 176.811 56.227C174.806 55.1095 172.808 53.9986 170.803 52.8811C171.894 52.5722 172.992 52.2567 174.083 51.9477C175.628 52.8088 177.166 53.6699 178.711 54.5245C179.657 55.0504 180.505 53.5976 179.558 53.0718C178.494 52.4802 177.435 51.8885 176.37 51.2969C177.462 50.988 178.559 50.6725 179.65 50.3635C180.38 50.7711 181.11 51.1786 181.839 51.5862C182.786 52.112 183.634 50.6593 182.687 50.1334C182.438 49.9954 182.188 49.8574 181.938 49.7127C182.516 49.5484 183.095 49.3841 183.673 49.2197C184.712 48.9239 184.271 47.3003 183.226 47.5961C182.648 47.7604 182.063 47.9248 181.478 48.0957C181.609 47.859 181.747 47.6158 181.879 47.3792C182.405 46.4326 180.952 45.5846 180.426 46.5312C180.012 47.274 179.604 48.0102 179.19 48.753C178.099 49.062 177.001 49.3775 175.91 49.6864C176.495 48.6347 177.087 47.583 177.672 46.5246C178.198 45.5781 176.745 44.7301 176.219 45.6767C175.352 47.228 174.49 48.7859 173.623 50.3372C172.532 50.6462 171.434 50.9617 170.343 51.2706C171.454 49.2789 172.565 47.2871 173.669 45.2954C174.195 44.3488 172.742 43.5009 172.216 44.4474C170.829 46.9388 169.442 49.4301 168.049 51.9214C166.958 52.2304 165.86 52.5459 164.769 52.8548C166.471 49.7982 168.174 46.7481 169.876 43.6915C170.402 42.7449 168.949 41.8969 168.423 42.8435C166.445 46.3997 164.466 49.9494 162.488 53.5056C161.173 53.315 159.858 53.1243 158.544 52.9337C157.604 52.7957 156.664 52.6576 155.717 52.5262C155.625 52.513 155.093 52.4341 154.771 52.4144C154.758 52.3816 154.738 52.3487 154.725 52.3027C154.626 52.0134 154.442 51.7308 154.304 51.4547C153.877 50.587 153.449 49.7259 153.022 48.8582C152.47 47.7407 151.924 46.6298 151.372 45.5123V45.3743C154.245 42.5017 157.117 39.6291 159.99 36.7565C160.759 35.9874 159.569 34.7977 158.8 35.5667C156.322 38.0449 153.844 40.5231 151.372 42.9947V39.5831C153.384 37.5716 155.395 35.5602 157.413 33.5421C158.182 32.773 156.992 31.5832 156.223 32.3523C154.606 33.9694 152.989 35.5865 151.372 37.2035V33.7919C152.628 32.5364 153.877 31.2874 155.132 30.0319C155.901 29.2628 154.712 28.073 153.942 28.8421C153.088 29.6967 152.227 30.5578 151.372 31.4123V28.0007C151.964 27.4091 152.562 26.8109 153.154 26.2193C153.923 25.4502 152.733 24.2605 151.964 25.0295C151.767 25.2268 151.57 25.4239 151.372 25.6212V23.8135C151.372 22.7288 149.69 22.7288 149.69 23.8135V25.6212C149.492 25.4239 149.295 25.2268 149.098 25.0295C148.329 24.2605 147.139 25.4502 147.908 26.2193C148.506 26.8109 149.098 27.4091 149.69 28.0007V31.4123C148.835 30.5578 147.974 29.6967 147.119 28.8421C146.35 28.073 145.161 29.2628 145.93 30.0319C147.185 31.2874 148.434 32.5364 149.69 33.7919V37.2035C148.073 35.5865 146.456 33.9694 144.839 32.3523C144.069 31.5832 142.88 32.773 143.649 33.5421C145.66 35.5536 147.672 37.5651 149.69 39.5831V42.9947C147.211 40.5165 144.733 38.0383 142.262 35.5667C141.493 34.7977 140.303 35.9874 141.072 36.7565C143.945 39.6291 146.817 42.5017 149.69 45.3743V45.5123C149.118 46.6758 148.539 47.8393 147.967 49.0028C147.547 49.8574 147.126 50.7053 146.705 51.5599C146.58 51.8162 146.377 52.0989 146.304 52.375C146.304 52.3947 146.291 52.4078 146.285 52.421C145.936 52.4407 145.338 52.5262 145.22 52.5459C144.267 52.6839 143.314 52.822 142.354 52.96C141.164 53.1309 139.974 53.3084 138.778 53.4793C136.799 49.9297 134.821 46.3734 132.842 42.8238C132.316 41.8772 130.864 42.7252 131.39 43.6718C133.092 46.7284 134.795 49.7785 136.497 52.8351C135.406 52.5262 134.308 52.2106 133.217 51.9017C131.83 49.4104 130.443 46.919 129.05 44.4277C128.524 43.4811 127.071 44.3291 127.597 45.2757C128.708 47.2674 129.819 49.2592 130.923 51.2509C129.832 50.942 128.734 50.6265 127.643 50.3175C126.775 48.7662 125.914 47.2083 125.046 45.6569C124.521 44.7104 123.068 45.5583 123.594 46.5049C124.179 47.5567 124.764 48.6084 125.355 49.6667C124.264 49.3578 123.166 49.0423 122.075 48.7333C121.661 47.9905 121.254 47.2543 120.84 46.5115C120.314 45.5649 118.861 46.4129 119.387 47.3595C119.518 47.5961 119.656 47.8393 119.788 48.076C119.203 47.9116 118.624 47.7473 118.039 47.5764C116.994 47.2806 116.554 48.9042 117.592 49.2L117.599 49.1934ZM146.166 52.5985C146.114 52.6313 146.127 52.6379 146.166 52.5985V52.5985ZM140.428 54.9057C141.381 54.7677 142.334 54.6297 143.281 54.4916C144.227 54.3536 145.18 54.2155 146.127 54.0775C146.515 54.0183 147.027 54.0381 147.349 53.7883C147.691 53.5319 147.856 52.96 148.04 52.5985C148.447 51.7702 148.855 50.9485 149.262 50.1203C149.683 49.2723 150.097 48.4244 150.518 47.5764C150.938 48.4244 151.353 49.2723 151.773 50.1203C152.201 50.9814 152.621 51.8425 153.049 52.6971C153.213 53.0389 153.371 53.545 153.686 53.7817C154.034 54.0446 154.613 54.0249 155.027 54.0841C155.941 54.2155 156.848 54.347 157.762 54.4785C158.715 54.6165 159.668 54.7546 160.614 54.8926C159.911 55.5828 159.201 56.2664 158.498 56.9566C157.847 57.5877 157.203 58.2188 156.552 58.8498C156.263 59.1325 155.776 59.4743 155.658 59.8818C155.546 60.2697 155.757 60.8876 155.816 61.2622C155.98 62.2088 156.138 63.1488 156.302 64.0954C156.453 64.9828 156.605 65.8702 156.756 66.7511C154.817 65.7322 152.878 64.7133 150.938 63.6944C150.794 63.6155 150.649 63.5892 150.511 63.5958C150.373 63.5958 150.235 63.6221 150.091 63.6944C148.151 64.7133 146.212 65.7322 144.273 66.7511C144.431 65.8111 144.595 64.871 144.76 63.931C144.911 63.0371 145.069 62.1497 145.22 61.2557C145.285 60.8744 145.496 60.2631 145.378 59.8753C145.259 59.4611 144.773 59.1259 144.484 58.8432C143.8 58.1727 143.11 57.5022 142.426 56.8383C141.762 56.1876 141.092 55.5368 140.428 54.886V54.9057Z" fill="white"/>
<path d="M41.7026 147.297C40.8724 145.74 41.4645 143.796 43.0218 142.965C44.5792 142.135 46.5235 142.727 47.3537 144.285C48.1839 145.842 47.5918 147.786 46.0345 148.617C44.4772 149.447 42.5328 148.855 41.7026 147.297ZM42.11 147.08C42.8212 148.414 44.4869 148.927 45.8273 148.212C47.1678 147.498 47.674 145.835 46.9594 144.495C46.2448 143.154 44.5826 142.648 43.2421 143.363C41.9016 144.077 41.3954 145.74 42.11 147.08Z" fill="white"/>
<path d="M45.6194 153.521L50.3373 151.006C51.1321 150.582 51.4329 149.595 51.0092 148.8L49.7446 146.428C49.3209 145.633 48.3331 145.332 47.5384 145.756L42.8204 148.271C42.0256 148.695 41.7248 149.682 42.1485 150.477L43.4131 152.849C43.8368 153.644 44.8246 153.945 45.6194 153.521Z" fill="white"/>
<path d="M71.7307 180.31L71.1949 181.093L71.4175 180.688L70.8773 181.305L71.5178 180.448L71.6212 180.073L71.8802 179.909L72.4555 178.978L72.0243 179.816L72.2403 179.667L71.7307 180.31Z" fill="white"/>
<path d="M74.7708 173.997L74.5569 174.989L74.557 174.482L74.1582 175.286L74.5194 174.19L74.3972 173.724L74.7083 173.516L74.9717 172.379L74.8717 173.395L75.0999 173.206L74.7708 173.997Z" fill="white"/>
<path d="M75.5904 166.624L75.7453 167.705L75.5439 167.138L75.4198 167.997L75.3854 166.809L75.0653 166.287L75.3299 166.087L75.1755 164.895L75.4569 165.977L75.6155 165.8L75.5904 166.624Z" fill="white"/>
<path d="M73.5894 159.387L74.1495 160.421L73.7615 159.852L73.9988 160.645L73.4996 159.519L73.017 159.025L73.1629 158.871L72.5626 157.824L73.2172 158.783L73.254 158.662L73.5894 159.387Z" fill="white"/>
<path d="M69.0292 153.649L69.0498 153.672L69.1282 153.74L69.684 154.228L69.401 153.983L69.9384 154.532L69.0883 153.744L68.5259 153.386L68.5536 153.295L67.626 152.6L68.5326 153.256L68.512 153.233L69.0292 153.649Z" fill="white"/>
<path d="M74.0863 160.193C74.8385 161.952 74.9913 162.318 75.4798 164.184C75.5721 164.658 75.7052 165.288 75.7743 165.766C76.4684 171.8 74.7412 177.219 70.6352 181.864C73.0629 178.645 75.162 175.855 75.781 170.479C76.0529 168.14 76.0848 163.499 73.2946 158.708C73.5328 159.155 73.8743 159.732 74.0863 160.193Z" fill="white"/>
<path d="M48.8399 150.809C49.8133 150.324 50.4607 150.113 51.1415 149.902L51.2273 149.874L51.6111 149.77C50.3815 150.139 49.6411 150.365 48.2945 151.099C48.4588 151.012 48.6787 150.886 48.8465 150.805" fill="white"/>
<path d="M64.3703 150.766L64.4242 150.788L64.1211 150.663L64.3703 150.766Z" fill="white"/>
<path d="M62.9734 150.22L63.276 150.328L62.7719 150.158L62.7246 150.133L62.9734 150.22Z" fill="white"/>
<path d="M55.7521 149.149L56.198 149.131L55.7687 149.149L55.7188 149.15L55.7521 149.149Z" fill="white"/>
<path d="M55.2034 149.18L54.5586 149.237L54.8709 149.206L55.2034 149.18Z" fill="white"/>
<path d="M49.4432 150.546L50.4223 150.151L49.8156 150.39L50.4722 150.15L49.4467 150.553L48.8116 150.849L48.8378 150.835L48.292 151.11L48.8409 150.825L48.8475 150.822L49.4432 150.546Z" fill="white"/>
<path d="M48.331 151.055L48.4545 150.939L48.2924 151.11L48.359 150.981L48.331 151.055Z" fill="white"/>
<path d="M45.9756 152.336L45.0132 152.984L45.6511 152.534L45.1468 152.871L46.0409 152.284L46.6871 151.898L46.6117 151.946L47.6074 151.424L46.5758 151.974L46.5303 152.015L45.9756 152.336Z" fill="white"/>
<path d="M37.3882 165.732L37.4623 165.254L37.4614 165.347L37.3882 165.732Z" fill="white"/>
<path d="M39.5343 159.534L39.0484 160.569L39.3196 159.859L39.0041 160.407L39.5019 159.441L39.8538 158.756L39.8367 158.866L40.4452 157.934L39.8515 158.926L39.9133 158.994L39.5343 159.534Z" fill="white"/>
<path d="M43.9266 154.112L43.1314 154.916L43.5906 154.384L43.053 154.848L43.899 154.076L44.419 153.579L44.4269 153.626L45.3478 152.916L44.444 153.642L44.4913 153.667L43.9266 154.112Z" fill="white"/>
<path d="M48.3214 151.086C48.5668 150.913 48.915 150.727 49.1849 150.6C49.2374 150.572 49.3167 150.547 49.3793 150.522L49.3925 150.515C48.8752 150.731 48.5444 150.95 48.2987 151.106C48.2987 151.106 48.3184 151.096 48.3315 151.089" fill="white"/>
<path d="M48.2684 151.097C48.2684 151.097 48.201 151.065 48.1738 151.046C48.233 151.014 48.3052 150.976 48.3679 150.951C48.3289 150.989 48.2938 151.049 48.2886 151.103C48.2886 151.103 48.275 151.093 48.2649 151.09" fill="white"/>
<path d="M39.5839 160.292C38.8395 161.76 36.5745 166.234 37.4172 171.582L37.3184 170.858L37.2392 170.124C36.6654 162.827 40.7438 157.766 42.0862 156.106C42.3517 155.812 42.6978 155.417 42.9769 155.133C41.5679 156.669 40.4309 158.414 39.5839 160.292Z" fill="white"/>
<path d="M44.5614 183.368C46.0553 184.698 47.787 186.078 51.0519 187.106C50.2889 186.846 49.2798 186.473 48.5321 186.162C48.127 185.956 47.5773 185.701 47.1717 185.478C45.4364 184.471 44.2128 183.537 42.7041 181.514C43.2844 182.175 43.9102 182.795 44.5579 183.361" fill="white"/>
<path d="M42.9001 182.245L43.7774 183.052L43.123 182.489L43.2667 182.632L42.2914 181.641L42.3085 181.658L41.5938 180.824L42.3934 181.722L42.5853 181.797L42.9001 182.245Z" fill="white"/>
<path d="M39.3868 176.177L39.3877 176.337L39.7975 177.106C39.8431 177.191 39.8851 177.27 39.9307 177.356L39.4178 176.726L39.5277 177.36L39.11 176.291L38.6576 175.553L38.8898 175.641L38.5877 174.536L39.0636 175.666L39.1837 175.67C39.248 175.838 39.3159 176.013 39.3868 176.177Z" fill="white"/>
<path d="M69.6847 154.229L69.1289 153.74L69.8826 154.41L69.6847 154.229Z" fill="white"/>
<path d="M69.0294 153.649L68.5121 153.233L68.4346 153.199L69.0294 153.649Z" fill="white"/>
<path d="M70.6349 181.797L69.8029 182.595L70.3466 182.111L69.8371 182.628L70.6489 181.823L71.1062 181.352L71.112 181.315L71.8383 180.43L71.1014 181.295L71.0774 181.266L70.6349 181.797Z" fill="white"/>
<path d="M74.3281 175.871L73.8352 176.893L74.2151 176.26L73.9793 176.926L74.4219 175.888L74.7159 175.284L74.655 175.249L74.9933 174.174L74.598 175.237L74.4645 175.224L74.3281 175.871Z" fill="white"/>
<path d="M75.3685 168.911L75.2352 170.054L75.4924 169.318L75.6206 170.017L75.6143 168.881L75.7659 168.185L75.5697 168.196L75.4433 167.057L75.4203 168.217L75.115 168.262L75.3685 168.911Z" fill="white"/>
<path d="M73.432 162.002L73.6754 163.155L73.7846 162.363L74.3176 162.999L73.8258 161.902L73.8466 161.165L73.4922 161.245L72.8813 160.178L73.2473 161.308L72.7874 161.426L73.432 162.002Z" fill="white"/>
<path d="M68.8349 156.006L69.3661 156.955L69.3544 156.252L70.1922 156.7L69.3238 155.847L69.2275 155.223L68.7781 155.361L67.8553 154.596L68.4841 155.459L67.9357 155.633L68.8349 156.006Z" fill="white"/>
<path d="M68.269 183.531L67.4117 184.25L68.0289 183.777L67.5834 184.192L68.3978 183.488L69.0111 182.992L68.8626 183.046L69.5719 182.271L68.7702 183.078L68.6181 183.126L68.269 183.531Z" fill="white"/>
<path d="M71.5886 178.394L71.0378 179.371L71.5929 178.687L71.5495 179.192L71.9285 178.272L72.4604 177.592L72.1169 177.708L72.3817 176.748L71.8957 177.783L71.5195 177.916L71.5886 178.394Z" fill="white"/>
<path d="M72.0366 172.223L71.81 173.365L72.3108 172.515L72.7005 173.025L72.6039 172.005L73.0719 171.173L72.5112 171.388L72.3041 170.35L72.1515 171.52L71.5347 171.756L72.0366 172.223Z" fill="white"/>
<path d="M69.6964 165.901L69.7645 167.106L70.1961 166.158L70.9709 166.614L70.438 165.599L70.8171 164.679L70.0921 164.982L69.4659 163.965L69.6273 165.17L68.8195 165.491L69.6964 165.901Z" fill="white"/>
<path d="M65.0687 159.912L65.3782 161.047L65.7135 160.109L66.7585 160.455L65.8989 159.554L66.1793 158.687L65.3689 159.035L64.4742 158.196L64.8581 159.248L63.9785 159.624L65.0687 159.912Z" fill="white"/>
<path d="M65.6251 185.396L64.9579 185.87L65.4197 185.564L65.0105 185.842L65.7075 185.36L66.2042 184.994L66.089 185.047L66.6607 184.489L66.0198 185.076L65.9112 185.125L65.6251 185.396Z" fill="white"/>
<path d="M67.9364 181.641L67.5439 182.424L68.0249 181.839L68.1037 182.176L68.325 181.468L68.8415 180.838L68.4267 181.025L68.5333 180.26L68.1665 181.139L67.735 181.326L67.9364 181.641Z" fill="white"/>
<path d="M67.3644 176.706L67.221 177.719L67.7358 176.896L68.2811 177.238L68.0491 176.391L68.5867 175.548L67.8823 175.873L67.5496 174.995L67.4377 176.067L66.7035 176.4L67.3644 176.706Z" fill="white"/>
<path d="M64.3162 171.275L64.3734 172.443L64.897 171.447L65.8277 171.752L65.2212 170.852L65.7614 169.855L64.8336 170.299L64.1632 169.374L64.2677 170.567L63.3 171.015L64.3162 171.275Z" fill="white"/>
<path d="M59.5223 165.654L59.7245 166.888L60.2358 165.805L61.4023 166.078L60.5487 165.158L61.0539 164.095L60.0245 164.602L59.1512 163.692L59.3928 164.905L58.327 165.422L59.5223 165.654Z" fill="white"/>
<path d="M51.9068 149.706C62.5557 147.236 74.1559 155.035 75.7756 165.766C75.6898 165.288 75.5901 164.658 75.4811 164.185C74.9983 162.408 74.884 161.988 74.0875 160.193C73.8493 159.747 73.5538 159.145 73.2958 158.708C65.4805 146.343 51.7413 149.744 51.6024 149.784L51.2187 149.887L51.1328 149.916C51.361 149.854 51.6686 149.766 51.8937 149.713" fill="white"/>
<path d="M63.2399 150.339L64.2171 150.764L63.6972 150.501L64.3704 150.766L64.1211 150.663L63.3604 150.36L63.2763 150.329L62.9736 150.22L62.7248 150.133L62.7047 150.127L61.6035 149.803L62.6346 150.122L62.4712 150.116L63.2399 150.339Z" fill="white"/>
<path d="M56.2597 149.149L57.29 149.182L56.7293 149.144L57.5125 149.156L56.3758 149.129L56.1993 149.131L55.7534 149.149L55.7201 149.15L55.6934 149.147L55.2045 149.18L54.8721 149.205L55.6237 149.159L55.4844 149.183L56.2597 149.149Z" fill="white"/>
<path d="M63.1505 152.151L63.8306 152.809L63.73 152.272L64.6822 152.507L63.6424 151.981L63.4638 151.519L63.0082 151.678L61.9605 151.232L62.7178 151.782L62.1864 151.973L63.1505 152.151Z" fill="white"/>
<path d="M56.7191 150.027L57.4502 150.338L57.2491 150.04L58.1427 150.07L57.1116 149.877L56.8427 149.657L56.4931 149.793L55.4844 149.689L56.2688 149.879L55.8597 150.029L56.7191 150.027Z" fill="white"/>
<path d="M50.9518 150.021L51.6159 149.937L51.3193 149.935L51.972 149.798L51.1134 149.96L50.749 150.036L50.6237 150.086L49.8738 150.325L49.8672 150.329L50.5378 150.115L50.3863 150.179L50.9518 150.021Z" fill="white"/>
<path d="M59.7648 155.534L60.1545 156.423L60.417 155.633L61.5046 155.821L60.5616 155.176L60.7628 154.462L59.9923 154.805L59.0642 154.219L59.5082 155.021L58.6816 155.385L59.7648 155.534Z" fill="white"/>
<path d="M54.3094 152.408L54.6846 153.001L54.863 152.434L55.7973 152.493L54.948 152.118L55.0585 151.629L54.4562 151.908L53.6652 151.596L54.0777 152.085L53.4324 152.378L54.3094 152.408Z" fill="white"/>
<path d="M50.1227 150.902L50.3824 151.151L50.4618 150.873L51.0636 150.831L50.478 150.729L50.4798 150.543L50.1639 150.694L49.6733 150.66L49.9598 150.786L49.6207 150.942L50.1227 150.902Z" fill="white"/>
<path d="M54.5039 160.735L54.6859 161.836L55.1959 160.83L56.3597 161.003L55.5036 160.236L55.9917 159.283L54.9955 159.789L54.18 159.051L54.387 160.088L53.3677 160.598L54.5039 160.735Z" fill="white"/>
<path d="M49.9865 156.519L50.0498 157.413L50.5375 156.571L51.4797 156.676L50.8148 156.094L51.2613 155.333L50.4395 155.754L49.8623 155.209L49.9432 156.01L49.1148 156.435L49.9865 156.519Z" fill="white"/>
<path d="M47.3154 153.361L47.1918 153.983L47.6164 153.403L48.1709 153.461L47.8578 153.08L48.2245 152.581L47.7054 152.857L47.5131 152.512L47.3865 153.019L46.8674 153.296L47.3154 153.361Z" fill="white"/>
<path d="M65.2001 184.534L65.1089 184.996L65.3162 184.641L65.4476 184.824L65.4599 184.404L65.7451 183.973L65.4429 184.135L65.3404 183.658L65.2553 184.226L64.9395 184.378L65.2001 184.534Z" fill="white"/>
<path d="M63.3242 181.332L63.4274 182.095L63.7332 181.434L64.3609 181.614L63.9388 181.012L64.3199 180.303L63.6624 180.637L63.1557 179.987L63.2647 180.84L62.594 181.181L63.3242 181.332Z" fill="white"/>
<path d="M59.2624 177.227L59.4817 178.224L59.8879 177.324L60.8884 177.491L60.153 176.761L60.6184 175.829L59.6949 176.313L58.9088 175.551L59.1329 176.604L58.1963 177.095L59.2624 177.227Z" fill="white"/>
<path d="M53.9335 172.439L54.1874 173.612L54.669 172.536L55.8726 172.705L54.9783 171.882L55.5094 170.789L54.4352 171.37L53.5401 170.514L53.7882 171.723L52.7171 172.294L53.9335 172.439Z" fill="white"/>
<path d="M64.3225 185.896L64.6769 185.944L64.4925 185.899L64.7194 185.913L64.411 185.841L64.3274 185.7L64.1929 185.78L63.7764 185.647L64.1175 185.828L63.9795 185.902L64.3225 185.896Z" fill="white"/>
<path d="M60.5113 184.763L61.0185 185.177L60.9581 184.778L61.6519 184.814L60.9511 184.512L61.0016 184.021L60.5061 184.31L59.737 183.944L60.2174 184.481L59.7513 184.747L60.5113 184.763Z" fill="white"/>
<path d="M55.0561 182.254L55.6214 182.982L55.6601 182.295L56.6382 182.373L55.7154 181.86L55.8658 181.114L55.1473 181.539L54.2065 180.977L54.7342 181.793L54.0618 182.193L55.0561 182.254Z" fill="white"/>
<path d="M49.0447 178.48L49.5601 179.463L49.6833 178.57L50.753 178.709L49.7921 178.014L50.0139 177.069L49.2109 177.573L48.2815 176.811L48.7487 177.862L48.0114 178.331L49.0447 178.48Z" fill="white"/>
<path d="M64.8606 185.939L64.2158 186.122L64.8606 185.939Z" fill="white"/>
<path d="M59.8907 186.622L60.7751 186.682L60.3292 186.574L61.0366 186.492L60.087 186.483L59.7353 186.283L59.5066 186.455L58.5049 186.365L59.3726 186.552L59.1566 186.701L59.8907 186.622Z" fill="white"/>
<path d="M53.3196 185.644L54.2201 186.067L53.8496 185.657L54.7296 185.677L53.656 185.389L53.3933 184.896L53.0078 185.186L51.9355 184.821L52.7922 185.351L52.4558 185.607L53.3196 185.644Z" fill="white"/>
<path d="M46.762 182.887L47.5644 183.632L47.2776 182.984L48.1545 183.141L47.127 182.575L46.9449 181.853L46.5243 182.204L45.5481 181.56L46.293 182.403L45.9478 182.705L46.762 182.887Z" fill="white"/>
<path d="M61.742 186.976L62.8371 186.688L62.1585 186.856L62.8362 186.655L61.7542 186.936L61.127 187.026L61.095 187.077L59.9775 187.276L61.0792 187.11L61.0538 187.158L61.742 186.976Z" fill="white"/>
<path d="M54.6847 187.524L55.8073 187.651L55.1209 187.519L55.8629 187.487L54.7285 187.416L54.1201 187.209L54.0469 187.341L52.9199 187.174L54.0189 187.415L53.9851 187.526L54.6847 187.524Z" fill="white"/>
<path d="M48.0179 185.829L49.0603 186.328L48.3841 185.946L49.0284 186.126L48.0013 185.703L47.41 185.259L47.3943 185.419L46.418 184.902L47.403 185.499L47.4625 185.611L48.0179 185.829Z" fill="white"/>
<path d="M48.8355 167.402L49.0044 168.637L49.518 167.511L50.6887 167.697L49.8501 166.836L50.4241 165.728L49.3635 166.319L48.6015 165.46L48.7397 166.668L47.7348 167.221L48.8355 167.402Z" fill="white"/>
<path d="M44.8519 162.209L44.8079 163.33L45.3512 162.323L46.219 162.51L45.6856 161.731L46.26 160.767L45.3935 161.263L44.967 160.494L44.8915 161.556L44.0775 162.023L44.8519 162.209Z" fill="white"/>
<path d="M43.2554 157.474L42.9465 158.398L43.492 157.601L43.9369 157.803L43.8227 157.129L44.3665 156.392L43.7891 156.734L43.7988 156.087L43.4579 156.936L42.9199 157.256L43.2554 157.474Z" fill="white"/>
<path d="M44.5206 153.627L43.9252 154.299L44.4707 153.755L44.443 153.972L44.7927 153.456L45.3101 152.986L45.0446 153.153L45.5186 152.681L44.8838 153.247L44.6446 153.4L44.5206 153.627Z" fill="white"/>
<path d="M43.9051 173.761L44.2659 174.944L44.4688 173.916L45.4416 174.173L44.6157 173.289L44.9076 172.222L44.1414 172.732L43.4074 171.798L43.706 173.023L43.0085 173.487L43.9051 173.761Z" fill="white"/>
<path d="M40.2438 167.907L40.2887 169.115L40.6122 168.107L41.2635 168.426L40.826 167.495L41.223 166.498L40.5983 166.941L40.2774 166.007L40.2417 167.19L39.6955 167.574L40.2438 167.907Z" fill="white"/>
<path d="M39.3527 161.993L39.0485 163.101L39.4718 162.217L39.7179 162.584L39.7447 161.7L40.2188 160.848L39.7974 161.166L39.9443 160.286L39.5621 161.342L39.2064 161.624L39.3527 161.993Z" fill="white"/>
<path d="M41.3518 156.658L40.713 157.58L41.2313 156.891L41.0779 157.268L41.5538 156.482L42.1067 155.842L41.8815 156.021L42.4782 155.272L41.7575 156.121L41.5849 156.272L41.3518 156.658Z" fill="white"/>
<path d="M41.5349 178.67L42.1515 179.7L41.94 178.876L42.6579 179.193L41.8499 178.358L41.7471 177.485L41.383 177.831L40.6565 176.927L41.185 178.029L40.9094 178.32L41.5349 178.67Z" fill="white"/>
<path d="M37.9738 172.593L38.2447 173.782L38.1779 172.881L38.5733 173.354L38.1736 172.335L38.2163 171.418L37.9674 171.711L37.7004 170.672L37.8517 171.873L37.6979 172.107L37.9738 172.593Z" fill="white"/>
<path d="M37.3381 166.224L37.3454 166.76L37.4314 165.718L37.623 164.89L37.5117 165.093L37.7178 164.055L37.4745 165.197L37.4626 165.254L37.3885 165.733L37.3661 165.896L37.2367 167.062L37.3381 166.224Z" fill="white"/>
<path d="M49.3599 150.532C49.4524 150.5 58.9589 147.406 69.4384 159.355C71.8418 162.091 77.0123 169.368 73.1961 177.706C71.797 180.764 69.6898 182.605 68.6769 183.491C79.7625 175.682 76.3132 154.222 55.293 150.28C51.8984 149.643 50.1388 150.252 49.3893 150.508L49.3761 150.515C49.32 150.536 49.2443 150.568 49.1816 150.593C49.2311 150.575 49.3004 150.547 49.3564 150.525" fill="white"/>
<path d="M48.1941 151.052C58.0994 154.675 80.1261 174.434 66.2165 185.081C70.695 182.195 73.2817 175.509 68.9669 167.066C63.8446 157.046 48.9225 151.01 48.785 150.974C48.6611 150.947 48.4876 150.938 48.3614 150.955L48.1709 151.056C48.1709 151.056 48.1774 151.053 48.184 151.049" fill="white"/>
<path d="M46.7526 151.829C45.2084 153.032 43.4521 154.407 59.5673 171.039C64.0488 175.663 70.1875 182.002 64.8604 185.939C71.2143 181.269 62.6271 169.45 54.2655 163.073C46.1315 156.869 45.2955 153.053 47.2218 151.554C47.0904 151.624 46.9265 151.728 46.7986 151.805C46.7855 151.812 46.7658 151.822 46.7526 151.829Z" fill="white"/>
<path d="M44.2896 153.573C36.9234 160.554 48.1509 173.336 58.477 180.186C62.5248 182.872 64.9717 184.597 64.8668 185.935C65.136 184.383 60.8555 180.057 50.975 171.907C38.4388 161.561 42.0049 155.508 45.2494 152.825C45.086 152.946 44.8604 153.108 44.6904 153.232C44.5699 153.339 44.4135 153.473 44.2996 153.576" fill="white"/>
<path d="M40.7946 157.258C30.1461 172.741 54.6835 187.491 64.8666 185.935C59.1853 186.643 46.182 179.078 41.6564 173.406C38.3365 169.252 36.9618 162.416 41.3751 156.527C41.6971 156.102 42.1562 155.571 42.519 155.175C42.1339 155.608 41.6292 156.181 41.2712 156.633L41.0522 156.919C40.9781 157.017 40.8817 157.153 40.8077 157.251" fill="white"/>
<path d="M37.6363 172.672C40.4543 184.511 54.5802 189.529 64.86 185.939C57.2878 188.482 39.0083 185.138 37.2434 170.13L37.3226 170.864L37.4214 171.588C37.4866 171.916 37.558 172.351 37.6363 172.672Z" fill="white"/>
<path d="M51.4018 187.206C57.2181 188.73 62.338 187.064 64.867 185.935C56.1207 189.695 49.1225 186.54 47.1826 185.481C47.5878 185.687 48.1282 185.973 48.543 186.165C49.2872 186.469 50.2932 186.852 51.0628 187.109C51.1636 187.139 51.3046 187.182 51.4084 187.203" fill="white"/>
<path d="M43.5526 182.884L42.767 182.139L42.2178 181.52L42.2909 181.642L43.2662 182.632L43.5526 182.884Z" fill="white"/>
<defs>
<clipPath id="clip0_312_1030">
<rect width="368" height="327" fill="white" transform="translate(842 15)"/>
</clipPath>
</defs>
</svg>
