<svg width="119" height="74" viewBox="0 0 119 74" fill="none" xmlns="http://www.w3.org/2000/svg">
<path d="M37.5598 73.1929L37.4795 72.9802L37.5598 72.7692L38.4175 72.7866C38.4612 71.7717 38.4699 70.7394 38.4699 69.6391C38.4699 68.5387 38.4699 67.4384 38.4175 66.4932L37.5598 66.5089L37.4795 66.2944L37.5598 66.0869H41.0308C43.0973 66.0869 43.6982 66.9466 43.6982 68.0766C43.6982 69.4019 42.8772 70.2145 40.2954 70.2145H39.9687C39.9687 71.1701 40.0037 71.913 40.0229 72.7849L40.8945 72.7675L40.9714 72.9785L40.8945 73.1912H37.5598V73.1929ZM40.3286 69.803C41.5548 69.803 42.016 69.0723 42.016 68.1586C42.016 67.1192 41.7243 66.5019 40.5137 66.5019H40.0229C40.0054 67.5482 39.9687 68.6678 39.9687 69.803H40.3268H40.3286Z" fill="#4B2E25"/>
<path d="M51.0278 72.7709L51.5815 71.0637L51.7929 71.0045L51.999 71.0637L51.9187 73.0151L51.7789 73.1929H46.1437L46.0703 72.9802L46.1437 72.7692L47.0084 72.7866C47.0468 71.7717 47.0573 70.7394 47.0573 69.6391C47.0573 68.5387 47.0573 67.4384 47.0084 66.4932L46.1437 66.5089L46.0703 66.2962L46.1437 66.0869H49.4574L49.5395 66.2962L49.4574 66.5089L48.6085 66.4932C48.5665 67.5046 48.5595 68.5335 48.5595 69.6321C48.5595 70.7307 48.5665 71.77 48.6085 72.7866L51.0278 72.7692V72.7709Z" fill="#4B2E25"/>
<path d="M56.3833 70.7866L55.6374 72.7885L56.3397 72.7728L56.4218 72.9821L56.3397 73.1948H54.4356L54.3535 72.9821L54.4356 72.7728L55.0872 72.7885C56.0427 70.5024 56.848 68.3802 57.669 66.1097L57.7651 66.0435H58.3101L58.4079 66.1097C59.2866 68.3941 60.1285 70.5146 61.0928 72.7885L61.7059 72.7728L61.7793 72.9821L61.7059 73.1948H58.6944L58.6175 72.9821L58.6944 72.7728L59.3914 72.7885C59.1433 72.0666 58.9232 71.4911 58.6717 70.7866H56.3851H56.3833ZM58.5092 70.3472C58.1319 69.3253 57.9293 68.776 57.5292 67.735L56.5388 70.3472H58.5092Z" fill="#4B2E25"/>
<path d="M69.8627 73.1479C68.6277 71.1704 67.0748 68.8023 65.7227 66.7725C65.6826 68.7901 65.6826 70.7414 65.7227 72.7869L66.5595 72.7712L66.6433 72.9805C66.6433 73.127 66.6101 73.1932 66.5595 73.1932H64.355C64.3096 73.1932 64.2764 73.127 64.2764 72.9805L64.355 72.7712L65.1969 72.7869C65.2371 70.7467 65.2371 68.5268 65.1969 66.4952L64.355 66.5092C64.3096 66.5092 64.2764 66.4429 64.2764 66.2964L64.355 66.0889H67.1045L67.1848 66.129C68.212 67.7735 69.4976 69.7492 70.5946 71.364C70.6173 69.5364 70.5946 68.0664 70.5649 66.4918L69.7265 66.5057C69.6758 66.5057 69.6461 66.4394 69.6461 66.293L69.7265 66.0854H71.8681L71.9537 66.293C71.9537 66.4394 71.9187 66.5057 71.8681 66.5057L71.0803 66.4918C71.0453 68.4954 71.0803 70.8426 71.0803 73.1095L70.9877 73.188H69.9553L69.8645 73.1444" fill="#4B2E25"/>
<path d="M81.121 66.0903L81.2572 66.2665V68.2404L81.0476 68.2997L80.8415 68.2404L80.2039 66.5298L78.6213 66.5019C78.5794 67.5237 78.5724 68.5352 78.5724 69.6338C78.5724 70.7324 78.5794 71.7717 78.6213 72.7883L79.8336 72.7709L79.9157 72.9819L79.8336 73.1946H75.8229L75.746 72.9819L75.8229 72.7709L77.0299 72.7883C77.0684 71.7734 77.0788 70.7428 77.0788 69.6407C77.0788 68.5386 77.0596 67.5237 77.0299 66.5019L75.456 66.5298L74.8027 68.2404L74.5983 68.2997L74.3975 68.2404V66.2665L74.5337 66.0903H81.1192H81.121Z" fill="#4B2E25"/>
<path fill-rule="evenodd" clip-rule="evenodd" d="M27.0479 69.6391C27.7291 68.7759 28.627 68.2911 29.7048 68.1307C30.6743 67.9859 31.6018 68.1533 32.4613 68.6521C32.8246 68.8666 33.1355 69.1351 33.3958 69.4629L33.4814 69.5693C33.3539 69.7332 33.2089 69.8884 33.0569 70.0332C32.7582 70.3087 32.4263 70.5371 32.0595 70.7098C31.4621 70.9783 30.8297 71.1248 30.1659 71.1248C29.5685 71.1248 28.9991 71.0045 28.461 70.7481C27.9859 70.5441 27.5614 70.2494 27.2173 69.8379L27.1317 69.7419L27.0496 69.6391" fill="#BDC4B4"/>
<path fill-rule="evenodd" clip-rule="evenodd" d="M85.0264 69.6411C85.7076 68.7744 86.6055 68.2914 87.6833 68.1292C88.6528 67.9845 89.5803 68.1519 90.4363 68.6506C90.7996 68.8668 91.1106 69.1336 91.3708 69.4615L91.4599 69.5678C91.3324 69.723 91.1909 69.887 91.032 70.0317C90.7367 70.3072 90.4048 70.5357 90.038 70.7083C89.4371 70.9803 88.8048 71.1233 88.1445 71.1233C87.5505 71.1233 86.9811 71.003 86.443 70.7467C85.9644 70.5426 85.5434 70.2479 85.1976 69.8364L85.1102 69.7405L85.0281 69.6393" fill="#BDC4B4"/>
<path d="M14.9211 61.0911C15.0538 61.051 15.1971 61.1574 15.3333 61.6317C15.4626 62.106 15.3962 62.2717 15.2634 62.3048L5.53012 65.0461C5.39736 65.081 5.25063 64.9833 5.11787 64.5055C4.98511 64.0277 5.05149 63.8673 5.18425 63.8289L7.29441 63.2918C6.63236 60.5314 5.90044 57.8511 5.06371 54.8884C4.23397 51.9501 3.3955 48.9786 2.5675 46.5547L0.490524 47.1999C0.354272 47.2366 0.207538 47.1337 0.0730329 46.6594C-0.0614727 46.1816 0.0066535 46.0159 0.141159 45.9793L15.2355 41.7261C15.5552 41.6407 15.6844 41.8918 15.7456 42.1028L17.1168 46.9767C17.1518 47.0814 16.9771 47.186 16.5823 47.2959C16.2102 47.4022 16.0111 47.4022 15.9552 47.3028L13.0205 43.6094L7.38001 45.1422C8.01585 47.5906 8.61327 49.9151 9.36789 52.5866L12.458 51.6624L12.8633 48.3474C12.8598 48.2323 13.0904 48.112 13.4048 48.0178C13.7786 47.9166 14.004 47.9079 14.0337 48.0143C14.549 50.4452 15.2233 52.8307 16.0547 55.1657C16.0844 55.272 15.9377 55.3749 15.5167 55.4935C15.1184 55.6034 14.9717 55.5894 14.8879 55.4935L12.8004 52.8778L9.68407 53.7009C10.5121 56.6444 11.2929 59.1956 12.1226 61.9369L14.9211 61.0929V61.0911Z" fill="#4B2E25"/>
<path d="M22.729 53.9136L21.4888 59.5932L23.3107 59.2758C23.447 59.2532 23.5763 59.377 23.6461 59.867C23.716 60.3535 23.6269 60.507 23.4872 60.5296L18.362 61.269C18.2257 61.2934 18.0965 61.1644 18.0266 60.6779C17.9567 60.1879 18.0441 60.0344 18.1803 60.0152L19.9079 59.8199C21.6425 53.1237 22.9457 47.1808 24.3047 40.5944L24.551 40.3607L26.3188 40.1079C26.4847 40.0852 26.5791 40.1811 26.621 40.2578C29.9627 46.2217 33.0161 51.5316 36.5988 57.41L38.171 57.1257C38.3107 57.1048 38.433 57.2269 38.5134 57.7204C38.5797 58.2069 38.4907 58.3569 38.3509 58.3795L29.7635 59.6211C29.6273 59.6403 29.4945 59.52 29.4281 59.0335C29.3583 58.5434 29.4473 58.3882 29.5836 58.3725L31.3357 58.172C30.3644 56.28 29.615 54.9198 28.6176 53.0661L22.7325 53.9136H22.729ZM27.9625 51.8176C26.5144 49.1391 26.0952 48.3683 24.5894 45.6637L23.0243 52.5308L27.9625 51.8176Z" fill="#4B2E25"/>
<path d="M47.5635 58.3878C42.8348 58.6354 38.9656 57.5769 38.6739 51.4736C38.5009 47.761 38.2214 43.5305 37.8668 39.8859L35.7759 40.0499C35.6361 40.0621 35.5191 39.9243 35.4999 39.4325C35.4685 38.9356 35.5698 38.7926 35.7095 38.7873L45.0673 38.2921C45.207 38.2851 45.324 38.4211 45.3537 38.9129C45.373 39.4046 45.2734 39.5494 45.1371 39.5546L42.9571 39.6191C43.0829 43.5462 43.2069 47.4314 43.4357 51.2713C43.7152 56.0301 45.5354 57.0642 48.4282 56.9055C51.2895 56.7573 53.7088 55.0048 53.4677 50.3854C53.2756 46.706 53.0415 42.9132 52.7585 39.0977L50.6955 39.2651C50.5628 39.2686 50.4422 39.1396 50.4178 38.6478C50.3846 38.1508 50.4894 38.0044 50.6292 37.9991L56.3832 37.6957C56.5177 37.687 56.6382 37.8195 56.6644 38.3165C56.6906 38.81 56.5858 38.9565 56.4513 38.96L54.3569 39.0175C54.4739 42.8382 54.6818 46.6589 54.8635 50.2041C55.1534 55.6151 52.2782 58.1349 47.5652 58.3878" fill="#4B2E25"/>
<path d="M72.9506 57.8213C69.7801 52.2184 65.979 45.639 62.5657 39.9176C62.2845 45.5535 62.129 50.6943 62.0696 56.3913L64.1641 56.4018C64.3073 56.4053 64.4104 56.5483 64.3946 57.0418C64.3772 57.5335 64.2654 57.6661 64.1291 57.6661L58.396 57.4934C58.2598 57.4899 58.1567 57.3504 58.169 56.85C58.1864 56.3565 58.2947 56.2204 58.4345 56.2292L60.5289 56.3495C60.8102 50.6873 60.9918 44.6363 61.0477 38.9707L58.9568 38.9585C58.817 38.955 58.7122 38.812 58.7262 38.3185C58.7437 37.825 58.8607 37.689 58.997 37.6924L66.9031 37.9296L67.1179 38.0517C69.7032 42.6972 72.9558 48.3297 75.7123 52.8444C75.9254 47.756 75.9883 43.8202 76.039 39.4171L73.9707 39.4118C73.8345 39.4084 73.7279 39.2689 73.7454 38.7754C73.7559 38.2766 73.8694 38.1458 74.0074 38.1458L79.4645 38.315C79.6008 38.3185 79.7056 38.4615 79.6898 38.955C79.6776 39.4467 79.5606 39.5793 79.4243 39.5793L77.5797 39.4694C77.3002 45.0444 77.2129 51.5122 77.0242 57.8387C77.0242 57.9782 76.9334 58.0567 76.7657 58.0514L73.1847 57.9398L72.9471 57.8265" fill="#4B2E25"/>
<path d="M90.1327 59.8705C85.4337 59.2707 81.8213 57.5303 82.6213 51.4741C83.1279 47.7929 83.61 43.5816 83.9175 39.93L81.83 39.7173C81.6903 39.6999 81.6012 39.5499 81.6641 39.0581C81.7235 38.5699 81.8545 38.4461 81.9907 38.46L91.2891 39.6563C91.4219 39.6667 91.5162 39.8254 91.4568 40.3085C91.3904 40.8037 91.2646 40.9223 91.1284 40.9118L88.9745 40.5735C88.3946 44.4657 87.8147 48.3091 87.35 52.1298C86.7718 56.8607 88.3806 58.2017 91.2507 58.5696C94.0892 58.9306 96.7863 57.6402 97.3768 53.0592C97.8414 49.4024 98.3008 45.6323 98.7096 41.8221L96.6536 41.6163C96.5173 41.6006 96.423 41.4489 96.4859 40.9554C96.5453 40.4654 96.6763 40.3398 96.8126 40.3643L102.53 41.0949C102.67 41.1124 102.759 41.2623 102.696 41.7488C102.629 42.2423 102.504 42.3679 102.367 42.347L100.297 42.0296C99.7245 45.8119 99.2371 49.6082 98.7847 53.1255C98.093 58.4999 94.8142 60.4669 90.1379 59.867" fill="#4B2E25"/>
<path d="M118.234 45.4805C118.531 45.6427 118.535 45.8433 118.472 46.0578L116.922 51.1061C116.872 51.2927 116.617 51.2822 116.274 51.1863C115.925 51.0921 115.729 50.9805 115.729 50.8672L115.266 46.0909C114.442 45.2416 113.332 44.7133 112.213 44.4064C110.246 43.8693 108.789 44.4988 108.443 45.7753C108.071 47.1267 108.288 48.3247 111.923 51.1131C116.126 54.3374 116.891 56.6566 116.187 59.2305C115.158 62.9989 111.353 64.2701 106.812 63.0355C104.417 62.3833 102.013 61.3562 100.382 60.3152C100.097 60.1216 100.09 59.949 100.146 59.738L101.554 54.5867C101.608 54.3775 101.863 54.3879 102.205 54.4856C102.555 54.578 102.75 54.6879 102.747 54.8065L103.365 59.8461C104.169 60.779 105.709 61.5079 106.988 61.8602C109.379 62.5071 111.242 61.9631 111.75 60.1059C112.092 58.8591 111.738 57.6506 108.31 54.8344C104.071 51.3467 103.445 49.0083 104.057 46.7779C104.832 43.939 107.898 42.0086 112.634 43.2956C114.864 43.9024 117.172 44.8737 118.234 45.4805Z" fill="#4B2E25"/>
<path d="M59.25 0C50.8722 0 44.0596 6.80261 44.0596 15.1642C44.0596 23.5258 50.8722 30.3301 59.25 30.3301C67.6277 30.3301 74.4404 23.5258 74.4404 15.1642C74.4404 6.80261 67.6295 0 59.25 0ZM60.0098 28.2218L59.8701 20.8856L60.9112 20.8298L60.9182 20.8333C61.3287 21.3076 61.8353 21.6581 62.4012 21.918C63.0423 22.2162 63.7253 22.3539 64.4363 22.3574C65.2241 22.3626 65.977 22.2005 66.6932 21.8622C67.1264 21.6529 67.5229 21.3844 67.881 21.06C68.0662 20.8891 68.2304 20.699 68.3824 20.4985L68.288 20.3764C67.9736 19.9876 67.6015 19.665 67.1683 19.4138C66.1447 18.8175 65.0442 18.6187 63.8826 18.7913C62.7471 18.9622 61.7741 19.433 61.0038 20.2544L59.8579 20.1916L59.774 15.6891L60.9164 15.628L60.9199 15.6315C61.3304 16.1024 61.837 16.4598 62.403 16.7162C63.0441 17.0074 63.7271 17.1574 64.438 17.1574C65.2259 17.1608 65.9787 16.9952 66.6949 16.6569C67.1282 16.4529 67.5247 16.1861 67.8828 15.8565C68.0679 15.6873 68.2321 15.4955 68.3841 15.2985L68.2898 15.1712C67.9754 14.7858 67.6033 14.4632 67.1701 14.2138C66.1464 13.6139 65.0459 13.4134 63.8843 13.5878C62.7489 13.7552 61.7794 14.2295 61.009 15.0473L59.76 14.9846L59.6937 11.5353C60.071 11.1621 60.3679 10.7297 60.588 10.2449C60.8867 9.59968 61.03 8.92308 61.03 8.21684C61.03 7.42515 60.8605 6.67182 60.5321 5.9586C60.3225 5.52091 60.0535 5.1268 59.7286 4.77281C59.5592 4.58448 59.3705 4.42405 59.1696 4.26885L59.0456 4.37173C58.656 4.68213 58.3329 5.05356 58.0831 5.48777C57.4839 6.50616 57.2848 7.61174 57.4577 8.76963C57.6219 9.85079 58.0621 10.7855 58.8255 11.5371L58.7591 14.9846L57.5817 15.0439C57.173 14.573 56.6751 14.2278 56.1179 13.9714C55.4663 13.6785 54.7886 13.532 54.0759 13.5302C53.2933 13.5302 52.5387 13.6941 51.8207 14.0324C51.3927 14.2382 50.9875 14.5033 50.6329 14.8346C50.4547 15.002 50.2818 15.1938 50.1245 15.3926L50.2259 15.5164C50.5455 15.907 50.9159 16.2244 51.3438 16.4755C52.364 17.0737 53.4662 17.2759 54.6401 17.1016C55.7651 16.9324 56.731 16.4581 57.5014 15.6455L58.7399 15.7083L58.6543 20.1933L57.58 20.2474C57.1712 19.78 56.6734 19.4348 56.1162 19.1749C55.4646 18.8872 54.7868 18.739 54.0741 18.739C53.2915 18.732 52.5369 18.8959 51.819 19.2377C51.391 19.44 50.9857 19.7051 50.6311 20.0381C50.453 20.209 50.28 20.3991 50.1228 20.5979L50.2241 20.7234C50.5438 21.1071 50.9141 21.4332 51.3421 21.6825C52.3622 22.2772 53.4645 22.4795 54.6383 22.3033C55.7633 22.1342 56.7293 21.6669 57.4996 20.8507L58.6368 20.9083L58.4971 28.2271C51.6233 27.833 46.154 22.1272 46.154 15.1694C46.154 8.21161 52.0251 2.08734 59.25 2.08734C66.4748 2.08734 72.3512 7.95352 72.3512 15.1659C72.3512 22.3783 66.8801 27.8243 60.0116 28.2236" fill="#4B2E25"/>
</svg>
