<svg width="647" height="190" viewBox="0 0 647 190" fill="none" xmlns="http://www.w3.org/2000/svg">
<path d="M89.2151 71.9588L74.35 86.9451C74.313 86.9823 74.2505 86.9823 74.2135 86.9451L59.2943 71.9588C59.2574 71.9216 59.2574 71.8587 59.2943 71.8216C59.3114 71.8044 59.337 71.793 59.3626 71.793H89.1469C89.2009 71.793 89.2436 71.8359 89.2436 71.8902C89.2436 71.9159 89.2322 71.9416 89.2151 71.9588Z" fill="#393185"/>
<path d="M50.8059 80.5554L65.691 95.5389C65.7279 95.5732 65.7279 95.6333 65.691 95.6676L50.8059 110.651C50.7689 110.685 50.7121 110.685 50.6779 110.648C50.6609 110.631 50.6523 110.608 50.6523 110.585V80.6183C50.6523 80.5669 50.695 80.5269 50.7433 80.5269C50.7661 80.5269 50.7888 80.5354 50.8059 80.5526V80.5554Z" fill="#393185"/>
<path d="M97.8046 110.666L82.8684 95.6706C82.8342 95.6363 82.8342 95.5791 82.8684 95.5448L97.8046 80.5499C97.8387 80.5156 97.8956 80.5156 97.9297 80.5499C97.9468 80.5671 97.9553 80.5899 97.9553 80.6128V110.603C97.9553 110.651 97.9155 110.691 97.8672 110.691C97.8444 110.691 97.8217 110.683 97.8046 110.666Z" fill="#393185"/>
<path d="M59.2775 119.191L74.1909 104.219C74.2251 104.181 74.2848 104.181 74.3189 104.219L89.2324 119.191C89.2665 119.228 89.2665 119.285 89.2295 119.319C89.2125 119.334 89.1926 119.342 89.1698 119.345H59.3372C59.286 119.345 59.249 119.299 59.249 119.251C59.249 119.228 59.2576 119.208 59.2746 119.191H59.2775Z" fill="#393185"/>
<path d="M248.821 29.1038C251.19 30.0415 253.849 30.842 255.88 32.423C257.606 33.7667 258.03 36.8286 255.849 37.9378C251.904 39.9448 245.298 37.5004 241.885 35.5563C241.456 35.3105 240.568 34.7501 239.229 33.8725C239.135 33.8124 239.087 33.8381 239.087 33.9496V46.6689C239.087 46.7861 239.161 46.889 239.269 46.9291C245.864 49.3648 252.627 49.9766 259.563 48.7673C266.55 47.5494 272.21 43.4441 273.222 35.9537C273.629 32.9405 273.111 30.1702 271.669 27.6401C269.079 23.0944 263.65 20.6357 259.057 18.7517C257.154 17.9712 254.037 16.8105 253.753 14.4405C253.343 10.9984 257.859 10.5667 260.132 10.7182C263.886 10.9669 267.364 12.1134 270.665 13.8916C270.771 13.9488 270.825 13.9173 270.825 13.7973V1.99571C270.828 1.90137 270.782 1.84419 270.694 1.81846C265.268 0.226051 259.733 -0.305704 254.088 0.223192C247.516 0.840715 240.671 4.39433 238.902 11.2528C236.766 19.5208 241.362 26.1563 248.821 29.1038Z" fill="white"/>
<path d="M303.792 49.139C316.112 47.5295 323.927 37.7349 324.282 25.4416C324.612 14.026 318.95 3.64534 307.324 0.820749C296.093 -1.9095 284.655 2.20446 279.343 12.6766C277.346 16.6133 276.595 20.6873 276.522 25.1529C276.263 40.7053 288.75 51.1031 303.792 49.139ZM301.861 12.345C305.202 12.7052 307.54 15.8729 308.359 18.9347C309.801 24.3438 309.724 34.0212 303.232 36.5541C299.224 38.1208 294.757 36.1882 293.067 32.1429C290.235 25.3644 291.008 11.1757 301.861 12.345Z" fill="white"/>
<path d="M366.184 47.3094C366.289 47.275 366.34 47.2036 366.34 47.0921V34.6673C366.34 34.4929 366.263 34.4472 366.11 34.5272C361.306 37.0059 354.234 38.3267 349.237 35.565C344.234 32.8004 342.787 27.0598 343.754 21.7251C345.739 10.7869 358.502 10.6239 366.246 14.7007C366.255 14.7064 366.266 14.7093 366.278 14.7093C366.312 14.7093 366.34 14.6779 366.34 14.6407V1.70703C366.34 1.5698 366.275 1.48403 366.144 1.45258C362.128 0.443392 358.025 -0.0340443 353.835 0.0202748C342.181 0.171797 332.279 6.52427 329.301 18.2315C327.854 23.9178 328.007 30.5962 330.325 36.1568C336.297 50.4942 353.614 51.3461 366.184 47.3094Z" fill="white"/>
<path d="M200.802 48.4644L203.012 39.8019C203.023 39.7619 203.057 39.7362 203.097 39.7362H217.143C217.183 39.7362 217.22 39.7648 217.229 39.8048L219.282 48.4616C219.291 48.5016 219.327 48.5302 219.367 48.5302H234.687C234.687 48.5302 234.707 48.5273 234.719 48.5216C234.764 48.5044 234.79 48.4558 234.773 48.4101L219.441 0.878011C219.43 0.840845 219.396 0.817974 219.356 0.817974L201.752 0.812256C201.715 0.812256 201.681 0.837986 201.67 0.872293L185.38 48.413C185.38 48.413 185.374 48.4301 185.374 48.4415C185.374 48.4901 185.414 48.5302 185.462 48.5302H200.717C200.757 48.5302 200.791 48.5044 200.802 48.4644ZM205.5 29.3955C206.311 26.2107 207.13 23.0202 207.952 19.8239C208.683 16.9908 209.522 14.1662 209.923 11.2558C209.923 11.2387 209.931 11.2215 209.94 11.2044C209.98 11.1329 210.068 11.1072 210.139 11.1472C210.17 11.1643 210.201 11.1986 210.238 11.2472C210.264 11.2844 210.278 11.3244 210.284 11.373C210.554 13.4686 210.955 15.5385 211.487 17.5826C212.505 21.5078 213.517 25.4388 214.524 29.3784C214.524 29.387 214.527 29.3955 214.527 29.4041C214.527 29.467 214.476 29.5185 214.413 29.5185H205.597C205.512 29.5185 205.48 29.4785 205.5 29.3955Z" fill="white"/>
<path d="M387.863 0.817871H373.871C373.782 0.817871 373.709 0.89083 373.709 0.980828V48.3643C373.709 48.4542 373.782 48.5272 373.871 48.5272H387.863C387.953 48.5272 388.025 48.4542 388.025 48.3643V0.980828C388.025 0.89083 387.953 0.817871 387.863 0.817871Z" fill="white"/>
<path d="M393.298 48.53H408.536C408.581 48.5272 408.618 48.4957 408.629 48.4528L410.836 39.8104C410.848 39.7675 410.885 39.736 410.93 39.736H424.959C425.005 39.7389 425.042 39.7704 425.053 39.8132L427.103 48.4557C427.115 48.4986 427.152 48.53 427.197 48.53H442.498C442.498 48.53 442.517 48.5272 442.529 48.5214C442.58 48.5043 442.608 48.45 442.591 48.4014L427.268 0.886446C427.254 0.846421 427.217 0.820691 427.175 0.820691L409.582 0.806396C409.542 0.806396 409.505 0.832127 409.491 0.872151L393.207 48.4014C393.207 48.4014 393.201 48.4214 393.201 48.4328C393.201 48.4871 393.244 48.53 393.298 48.53ZM413.313 29.3811C414.826 23.5547 416.567 17.5881 417.684 11.8332C417.886 10.7897 418.051 10.7954 418.179 11.8503C418.347 13.234 418.64 14.7607 419.061 16.4303C420.139 20.7043 421.231 25.0184 422.337 29.3697C422.363 29.4697 422.323 29.5183 422.223 29.5183H413.419C413.325 29.5183 413.291 29.4726 413.313 29.3811Z" fill="white"/>
<path d="M444.642 12.0675H457.749C457.801 12.0675 457.84 12.1075 457.84 12.159V48.4384C457.84 48.4899 457.88 48.5299 457.931 48.5299H472.108C472.159 48.5299 472.199 48.4899 472.199 48.4384V12.1618H472.202C472.202 12.1104 472.242 12.0704 472.293 12.0704H485.532V12.0675C485.583 12.0675 485.623 12.0275 485.623 11.976L485.648 0.917791C485.648 0.866331 485.608 0.826306 485.557 0.826306L444.642 0.812012C444.591 0.812012 444.551 0.852036 444.551 0.903497V11.976C444.551 12.0275 444.591 12.0675 444.642 12.0675Z" fill="white"/>
<path d="M505.551 0.817871H491.411C491.367 0.817871 491.331 0.85371 491.331 0.89792V48.4472C491.331 48.4914 491.367 48.5272 491.411 48.5272H505.551C505.595 48.5272 505.63 48.4914 505.63 48.4472V0.89792C505.63 0.85371 505.595 0.817871 505.551 0.817871Z" fill="white"/>
<path d="M542.689 39.9218L544.663 48.2383C544.709 48.4327 544.831 48.5299 545.027 48.5299H560.088C560.194 48.5299 560.228 48.4785 560.197 48.3784L544.891 0.923509C544.868 0.857754 544.805 0.812012 544.734 0.812012H527.31C527.199 0.812012 527.099 0.880625 527.065 0.986405L510.897 48.1697C510.883 48.2126 510.857 48.2498 510.82 48.2812C510.761 48.3327 510.747 48.3898 510.778 48.4527C510.801 48.4985 510.846 48.5271 510.897 48.5271H526.089C526.178 48.5299 526.232 48.487 526.254 48.4013L528.404 39.9904C528.447 39.8217 528.558 39.7359 528.731 39.7359H542.462C542.57 39.7388 542.664 39.816 542.689 39.9218ZM539.828 29.5154H531.009C531.009 29.5154 530.995 29.5154 530.987 29.5154C530.941 29.5039 530.916 29.4582 530.927 29.4125C532.173 24.4465 533.478 19.5035 534.709 14.5347C534.789 14.2117 535.429 11.1527 535.432 11.1498C535.591 11.0469 535.682 11.0898 535.708 11.2784C535.966 13.1825 536.276 14.9436 536.774 16.8962C537.835 21.0502 538.893 25.2042 539.948 29.3581C539.973 29.4639 539.934 29.5154 539.828 29.5154Z" fill="white"/>
<path d="M148.022 85.5844L131.874 87.2168C131.874 87.2168 131.863 87.2168 131.857 87.2168C131.812 87.2111 131.78 87.171 131.783 87.1253L133.632 70.7438C133.632 70.7438 133.632 70.7381 133.632 70.7352C133.632 70.6981 133.601 70.6666 133.564 70.6666H113.383C113.383 70.6666 113.375 70.6666 113.372 70.6666C113.321 70.6723 113.286 70.7181 113.292 70.7667L115.152 87.0738C115.152 87.0738 115.152 87.0881 115.152 87.0939C115.152 87.1825 115.078 87.254 114.993 87.254L99.8746 87.2625C99.7807 87.2625 99.7324 87.2168 99.7324 87.1224V70.1177C99.7324 70.0262 99.6869 69.9805 99.5959 69.9805L82.6575 69.9862C82.6035 69.9862 82.558 69.9405 82.558 69.8861L82.5324 54.7826C82.5324 54.6653 82.5864 54.6139 82.703 54.6253L99.0015 56.2863C99.0669 56.2921 99.101 56.2606 99.101 56.1949L99.084 36.5513C99.084 36.3884 99.0015 36.3141 98.8394 36.3284L82.7116 37.8407C82.7116 37.8407 82.703 37.8407 82.7002 37.8407C82.649 37.8379 82.6092 37.7921 82.612 37.7407L84.2302 21.3734C84.2387 21.2762 84.1961 21.2276 84.0965 21.2276L64.0384 21.2219C63.9417 21.2219 63.8991 21.2705 63.9076 21.3706L65.5827 37.7492C65.5912 37.8493 65.5485 37.895 65.449 37.8865L49.6681 36.397C49.5714 36.3884 49.5231 36.4313 49.5203 36.5313V56.1548C49.5174 56.252 49.5658 56.2949 49.6596 56.2835L65.4291 54.5882C65.5457 54.5739 65.6054 54.6282 65.6054 54.7454L65.6196 69.889C65.6196 69.9433 65.577 69.989 65.5229 69.989L49.0254 69.9805C48.9259 69.9805 48.8775 70.0291 48.8775 70.1263V87.0653C48.8775 87.1796 48.7837 87.2711 48.6699 87.2711H33.6228C33.5289 87.274 33.4891 87.2282 33.4977 87.1339L35.2353 70.7467C35.2353 70.7467 35.2353 70.7409 35.2353 70.7381C35.2353 70.6981 35.204 70.6666 35.1642 70.6666H15.0492C15.0492 70.6666 15.0435 70.6666 15.0407 70.6666C14.998 70.6723 14.9696 70.7095 14.9724 70.7524L16.5195 87.0595C16.5195 87.0595 16.5195 87.0824 16.5195 87.091C16.511 87.1825 16.4257 87.2511 16.3318 87.2425L0.229582 85.5129C0.115826 85.5014 0.0589475 85.5529 0.0589475 85.6644L0.0703232 105.537C0.0703232 105.594 0.0589475 105.648 0.0390402 105.7C0.00206931 105.788 -0.00930634 105.877 0.00775713 105.96C0.0276645 106.066 0.0902306 106.111 0.195455 106.1L16.3147 104.33C16.3147 104.33 16.3432 104.33 16.3574 104.33C16.4626 104.342 16.5394 104.439 16.528 104.545L14.8985 120.34C14.8985 120.34 14.8985 120.351 14.8985 120.354C14.8985 120.431 14.961 120.492 15.035 120.492H35.0334C35.1215 120.494 35.1585 120.452 35.15 120.363L33.5033 104.41C33.5033 104.41 33.5033 104.402 33.5033 104.399C33.5033 104.33 33.5574 104.276 33.6256 104.276H48.7439C48.832 104.276 48.8775 104.322 48.8775 104.41V120.992C48.8775 121.075 48.9458 121.143 49.0283 121.143H65.6026C65.6424 121.143 65.6765 121.175 65.6765 121.215L65.6993 136.433C65.6993 136.433 65.6993 136.444 65.6993 136.45C65.6907 136.527 65.6196 136.587 65.54 136.579L49.6113 134.935C49.5032 134.926 49.4492 134.975 49.452 135.08L49.506 155.304C49.506 155.416 49.5629 155.467 49.6738 155.456L65.503 153.703C65.503 153.703 65.5229 153.703 65.5343 153.703C65.6083 153.712 65.6623 153.781 65.6538 153.855L63.8962 170.162C63.8962 170.162 63.8962 170.165 63.8962 170.168C63.8962 170.202 63.9247 170.231 63.9588 170.231H84.3809C84.3809 170.231 84.3895 170.228 84.3923 170.228C84.4549 170.219 84.5004 170.162 84.4947 170.099L82.5893 153.875C82.5893 153.875 82.5893 153.852 82.5893 153.841C82.5978 153.763 82.6689 153.706 82.7457 153.715L98.9332 155.453C99.0271 155.464 99.0726 155.422 99.0726 155.327L99.1721 135.078C99.1721 134.972 99.1209 134.923 99.0157 134.935L82.8338 136.596C82.7115 136.61 82.6518 136.553 82.6518 136.43L82.6177 121.278C82.6177 121.203 82.6774 121.143 82.7514 121.143H99.593C99.6869 121.143 99.7324 121.095 99.7324 121V104.419C99.7352 104.324 99.7836 104.276 99.8774 104.276H114.953C115.053 104.276 115.098 104.327 115.087 104.427L113.295 120.374C113.286 120.451 113.321 120.492 113.397 120.492L133.444 120.506C133.549 120.506 133.598 120.454 133.583 120.349L131.709 104.496C131.709 104.496 131.709 104.476 131.709 104.465C131.718 104.387 131.786 104.333 131.863 104.342L148.09 106.111C148.133 106.114 148.156 106.097 148.156 106.054V85.7073C148.156 85.6187 148.11 85.5786 148.022 85.5872V85.5844ZM59.363 71.793H89.1473C89.1729 71.793 89.1985 71.8045 89.2156 71.8216C89.2525 71.8588 89.2525 71.9217 89.2156 71.9588L74.3505 86.9452C74.3135 86.9824 74.2509 86.9824 74.2139 86.9452L59.2948 71.9588C59.2777 71.9417 59.2663 71.916 59.2663 71.8902C59.2663 71.8359 59.309 71.793 59.363 71.793ZM50.7431 110.68C50.6919 110.68 50.6521 110.64 50.6521 110.588V80.6213C50.6521 80.5984 50.6607 80.5756 50.6777 80.5584C50.7119 80.5212 50.7687 80.5212 50.8057 80.5555L65.6907 95.539C65.7249 95.5762 65.7249 95.6334 65.6907 95.6677L50.8057 110.651C50.7886 110.668 50.7659 110.677 50.7431 110.677V110.68ZM89.1729 119.345H59.3403C59.3175 119.345 59.2976 119.337 59.2806 119.319C59.2436 119.285 59.2436 119.228 59.2777 119.191L74.1912 104.219C74.2282 104.184 74.285 104.184 74.3192 104.219L89.2326 119.191C89.2469 119.208 89.2554 119.228 89.2582 119.251C89.2582 119.302 89.2213 119.345 89.1701 119.345H89.1729ZM97.9549 110.603C97.9549 110.625 97.9464 110.648 97.9293 110.665C97.8952 110.7 97.8383 110.7 97.8042 110.665L82.868 95.6706C82.8338 95.6363 82.8338 95.5791 82.868 95.5448L97.8042 80.5498C97.8213 80.5327 97.844 80.5241 97.8668 80.5241C97.9151 80.5241 97.9549 80.5641 97.9549 80.6127V110.603Z" fill="white"/>
<path d="M460.003 52.0894C459.954 52.0894 459.914 52.1237 459.906 52.1694L457.853 64.0682C457.853 64.0682 457.853 64.0796 457.853 64.0853C457.853 64.1396 457.895 64.1825 457.949 64.1825H465.065C465.102 64.1825 465.133 64.1625 465.15 64.131L471.665 52.2323C471.665 52.2323 471.677 52.2037 471.677 52.1866C471.677 52.1322 471.634 52.0894 471.58 52.0894H460.005H460.003Z" fill="white"/>
<path d="M509.148 70.3636C502.88 69.0113 495.878 69.9004 490.347 73.2596C480.913 78.9889 477.606 90.7046 479.819 101.205C481.238 107.941 485.663 113.67 491.851 116.649C500.659 120.889 512.177 119.697 519.403 112.975C526.635 106.251 528.498 95.2074 525.762 85.8845C523.384 77.791 517.469 72.1561 509.148 70.3636ZM510.28 102.037C508.661 105.479 505.382 107.398 501.577 106.723C495.201 105.597 494.089 98.1635 494.402 92.8402C494.749 86.8994 497.653 81.2474 504.563 82.1222C508.752 82.6511 510.92 87.0138 511.463 90.8419C512.009 94.7071 511.926 98.538 510.28 102.037Z" fill="white"/>
<path d="M203.956 81.8335H219.165C219.236 81.8335 219.293 81.7764 219.293 81.7049V70.7038C219.293 70.6324 219.236 70.5752 219.165 70.5752H189.662C189.591 70.5752 189.534 70.6324 189.534 70.7038V118.159C189.534 118.23 189.591 118.287 189.662 118.287H203.7C203.771 118.287 203.828 118.233 203.828 118.162V101.803C203.828 101.731 203.885 101.674 203.956 101.674L217.808 101.666C217.879 101.666 217.936 101.609 217.936 101.537V90.5618C217.936 90.4903 217.879 90.4331 217.808 90.4331L203.956 90.4188C203.885 90.4188 203.828 90.3616 203.828 90.2902V81.9622C203.831 81.8907 203.887 81.8335 203.958 81.8335H203.956Z" fill="white"/>
<path d="M240.409 70.5779H226.314C226.259 70.5779 226.215 70.6227 226.215 70.6779V118.187C226.215 118.242 226.259 118.287 226.314 118.287H240.409C240.464 118.287 240.508 118.242 240.508 118.187V70.6779C240.508 70.6227 240.464 70.5779 240.409 70.5779Z" fill="white"/>
<path d="M264.019 70.5894L249.981 70.5693C249.91 70.5693 249.853 70.6265 249.853 70.698V118.161H249.851C249.851 118.233 249.907 118.29 249.979 118.29H280.371C280.443 118.287 280.499 118.23 280.499 118.159V107.192C280.497 107.12 280.44 107.063 280.369 107.063L264.275 107.055C264.204 107.055 264.147 106.997 264.147 106.926V70.718C264.147 70.6465 264.09 70.5894 264.019 70.5894Z" fill="white"/>
<path d="M297.802 118.207L300.006 109.576C300.018 109.53 300.06 109.496 300.109 109.496L314.118 109.505C314.166 109.505 314.209 109.539 314.22 109.585L316.268 118.207C316.279 118.253 316.322 118.287 316.37 118.287H331.653C331.653 118.287 331.673 118.287 331.685 118.287C331.742 118.27 331.77 118.21 331.753 118.156L316.43 70.6522C316.416 70.6093 316.376 70.5779 316.33 70.5779H298.755C298.71 70.5807 298.67 70.6093 298.656 70.6522L282.383 118.153C282.383 118.153 282.377 118.176 282.377 118.187C282.377 118.244 282.425 118.293 282.482 118.293H297.7C297.748 118.293 297.791 118.259 297.802 118.21V118.207ZM302.478 99.144C303.797 94.161 305.077 89.1893 306.314 84.2291C306.573 83.1914 306.766 82.1421 306.9 81.0815C306.911 80.9814 306.968 80.93 307.071 80.9328C307.122 80.9328 307.167 80.95 307.21 80.9871C307.241 81.0157 307.264 81.0615 307.273 81.1272C307.546 83.0999 307.756 84.3835 307.907 84.981C309.104 89.6982 310.304 94.4154 311.507 99.1297C311.533 99.2326 311.493 99.2841 311.388 99.2841H302.586C302.586 99.2841 302.566 99.2841 302.557 99.2812C302.498 99.2641 302.463 99.2041 302.478 99.144Z" fill="white"/>
<path d="M350.571 118.141C350.591 108.924 350.697 99.7015 350.404 90.4959C350.404 90.4616 350.421 90.433 350.449 90.413C350.492 90.3844 350.551 90.3987 350.577 90.4444C351.746 92.3913 353.014 94.2896 354.379 96.1393C359.78 103.438 365.081 110.823 370.43 118.167C370.49 118.247 370.57 118.287 370.669 118.287H382.912C383.009 118.287 383.057 118.239 383.057 118.144L383.063 70.7409C383.063 70.6494 382.989 70.5751 382.901 70.5751H370.109C369.955 70.5779 369.83 70.7037 369.83 70.8581C369.845 78.4713 369.867 86.0589 369.904 93.6264C369.91 94.7156 369.95 95.8077 370.027 96.9027C370.038 97.0485 370.001 97.0599 369.919 96.9427C368.878 95.4361 367.803 93.6693 366.895 92.4314C361.586 85.1898 356.273 77.9482 350.958 70.7008C350.893 70.6122 350.807 70.5693 350.702 70.5693L337.552 70.5894C337.458 70.5894 337.381 70.6637 337.381 70.758L337.364 118.156C337.364 118.244 337.41 118.287 337.498 118.287H350.421C350.52 118.287 350.569 118.242 350.571 118.141Z" fill="white"/>
<path d="M402.041 81.9393V118.184C402.041 118.242 402.089 118.29 402.146 118.29H416.309C416.365 118.29 416.414 118.239 416.414 118.182V81.9393C416.411 81.8821 416.459 81.8335 416.516 81.8335H429.735C429.792 81.8335 429.84 81.7849 429.84 81.7278V70.681C429.84 70.6238 429.792 70.5752 429.735 70.5752H388.853C388.797 70.5752 388.748 70.6238 388.748 70.681V81.7278C388.745 81.7849 388.794 81.8335 388.851 81.8335H401.935C401.992 81.8335 402.041 81.8821 402.041 81.9393Z" fill="white"/>
<path d="M465.004 97.7775C464.378 97.4687 463.744 97.1829 463.099 96.9198C462.948 96.8598 462.951 96.8026 463.104 96.754C467.723 95.2817 471.938 92.946 473.402 87.9057C474.369 84.5865 474.198 80.6327 472.592 77.608C469.273 71.3641 460.559 70.5665 454.368 70.5693C448.114 70.5693 441.877 70.5751 435.658 70.5779C435.595 70.5779 435.547 70.6265 435.547 70.6894V118.156C435.547 118.244 435.592 118.29 435.683 118.29H449.724C449.792 118.287 449.846 118.233 449.846 118.164V101.688C449.846 101.688 449.846 101.686 449.846 101.683C449.849 101.574 449.937 101.491 450.045 101.494C453.555 101.551 455.611 104.885 456.617 107.844C457.783 111.272 458.952 114.716 460.127 118.176C460.152 118.25 460.204 118.287 460.283 118.287H476.186C476.186 118.287 476.201 118.287 476.206 118.287C476.24 118.276 476.26 118.236 476.249 118.199C474.591 113.893 472.913 109.585 471.212 105.276C469.933 102.026 468.201 99.3585 465.004 97.7775ZM452.875 91.4222C451.976 91.4336 451.06 91.4508 450.13 91.4736C449.946 91.4765 449.855 91.3879 449.855 91.202V80.6527C449.852 80.5926 449.9 80.5441 449.957 80.5441C453.455 80.5269 458.184 80.0638 458.762 84.941C459.208 88.6891 456.421 91.3764 452.875 91.4222Z" fill="white"/>
<path d="M566.529 73.4996C563.02 71.2754 557.83 70.5864 553.692 70.5807C547.06 70.5721 540.462 70.5721 533.898 70.5807C533.739 70.5807 533.659 70.6607 533.659 70.8208L533.671 118.184C533.671 118.239 533.716 118.284 533.77 118.284H547.862C547.938 118.284 547.975 118.25 547.975 118.173V103.115C547.973 103.015 548.021 102.966 548.12 102.969C549.767 102.975 551.434 102.969 553.12 102.949C562.917 102.84 572.538 97.3714 572.464 86.2875C572.43 81.2329 571.022 76.347 566.529 73.4967V73.4996ZM557.312 87.5196C557.306 90.39 554.869 92.7057 551.869 92.7L548.075 92.6914C548.012 92.6914 547.961 92.6399 547.961 92.577L547.984 81.0385C547.984 80.9756 548.035 80.9242 548.098 80.9242L551.891 80.9327C554.889 80.9384 557.318 83.2656 557.312 86.1302V87.5196Z" fill="white"/>
<path d="M592.289 70.5808L578.283 70.5723C578.2 70.5723 578.135 70.638 578.135 70.7209V118.139C578.132 118.222 578.197 118.287 578.28 118.287H592.289C592.371 118.287 592.437 118.222 592.437 118.139V70.7295C592.437 70.6466 592.371 70.5808 592.289 70.5808Z" fill="white"/>
<path d="M646.995 118.153L631.672 70.6493C631.658 70.6064 631.618 70.575 631.573 70.575H614C613.955 70.575 613.915 70.6064 613.901 70.6493L597.625 118.147C597.625 118.147 597.619 118.17 597.619 118.181C597.619 118.239 597.668 118.287 597.724 118.287H612.936C612.985 118.287 613.028 118.253 613.039 118.207L615.251 109.576C615.263 109.527 615.305 109.496 615.354 109.496L629.363 109.505C629.411 109.505 629.454 109.539 629.465 109.585L631.507 118.207C631.519 118.253 631.561 118.287 631.61 118.287H646.896C646.896 118.287 646.916 118.287 646.927 118.287C646.984 118.27 647.012 118.21 646.995 118.156V118.153ZM626.636 99.284H617.757C617.757 99.284 617.748 99.284 617.743 99.284C617.711 99.2755 617.691 99.244 617.7 99.2126C619.091 94.0151 620.416 88.8062 621.679 83.5829C621.881 82.7453 622.051 81.8733 622.188 80.9671C622.193 80.9385 622.208 80.9099 622.23 80.8927C622.284 80.847 622.361 80.8556 622.407 80.907C622.461 80.9728 622.498 81.07 622.518 81.1929C622.731 82.5881 622.919 84.0061 623.26 85.3755C624.409 89.9669 625.572 94.5526 626.752 99.1354C626.778 99.2354 626.738 99.2869 626.636 99.2869V99.284Z" fill="white"/>
<path d="M217.177 141.287C205.352 138.674 193.354 143.64 188.809 155.367C186.176 162.157 186.099 170.768 189.409 177.375C194.218 186.978 204.835 191.464 215.158 189.577C223.084 188.13 228.743 183.916 232.133 176.938C236.024 168.936 235.543 157.454 230.396 150.032C227.213 145.447 222.808 142.531 217.177 141.287ZM216.162 175.505C212.695 178.816 207.195 178.376 204.422 174.367C199.886 167.809 201.223 150.679 212.994 153.08C214.239 153.335 215.4 154.052 216.475 155.233C220.581 159.747 220.684 171.18 216.162 175.505Z" fill="white"/>
<path d="M277.67 177.438C276.032 173.104 273.777 169.276 269.127 167.878C268.709 167.752 268.712 167.632 269.13 167.52C275.517 165.794 279.766 161.577 279.823 154.667C279.92 143.065 268.954 141.462 260.197 141.442C254 141.424 247.789 141.424 241.564 141.442C241.467 141.442 241.419 141.49 241.419 141.587V188.974C241.419 189.079 241.47 189.131 241.575 189.131L255.491 189.139C255.613 189.139 255.712 189.039 255.712 188.916V172.529C255.715 172.435 255.761 172.386 255.855 172.383C259.708 172.169 261.537 176.189 262.595 179.185C263.744 182.435 264.87 185.7 265.976 188.979C266.007 189.077 266.076 189.125 266.178 189.125L281.953 189.131C282.078 189.131 282.118 189.074 282.073 188.957C280.605 185.154 279.138 181.315 277.67 177.438ZM259.99 162.137C258.792 162.349 257.416 162.386 255.855 162.249C255.766 162.24 255.721 162.189 255.721 162.1L255.712 151.528C255.712 151.451 255.749 151.411 255.826 151.408C259.685 151.228 264.204 151.099 264.662 156.091C264.935 159.035 262.825 161.64 259.99 162.137Z" fill="white"/>
<path d="M317.476 141.433H299.875C299.835 141.433 299.798 141.459 299.784 141.496L283.506 188.996C283.506 188.996 283.5 189.016 283.5 189.028C283.5 189.079 283.543 189.122 283.594 189.122L298.834 189.134C298.877 189.134 298.914 189.105 298.925 189.062L301.138 180.403C301.149 180.36 301.186 180.331 301.229 180.331H315.255C315.298 180.331 315.335 180.36 315.346 180.403L317.399 189.054C317.411 189.096 317.448 189.125 317.49 189.125H332.799C332.799 189.125 332.816 189.125 332.828 189.125C332.876 189.108 332.904 189.056 332.887 189.008L317.564 141.501C317.553 141.461 317.516 141.436 317.476 141.436V141.433ZM312.528 170.131L303.706 170.113C303.706 170.113 303.692 170.113 303.686 170.111C303.638 170.099 303.609 170.048 303.621 169.999C305.165 164.01 306.891 157.992 308.097 151.916C308.114 151.828 308.162 151.768 308.245 151.733C308.253 151.731 308.262 151.728 308.273 151.728C308.327 151.722 308.373 151.762 308.379 151.814C308.563 153.246 308.825 154.667 309.166 156.082C310.292 160.722 311.45 165.359 312.636 169.99C312.636 169.999 312.639 170.01 312.639 170.019C312.639 170.082 312.588 170.131 312.528 170.131Z" fill="white"/>
<path d="M368.402 142.691C365.368 141.876 362.646 141.464 360.234 141.456C353.005 141.427 345.784 141.422 338.575 141.442C338.527 141.442 338.501 141.467 338.501 141.516V189.034C338.498 189.088 338.524 189.114 338.578 189.114C345.46 189.151 352.348 189.154 359.239 189.119C368.894 189.068 377.48 184.397 381.285 175.188C383.594 169.596 383.768 162.815 382.457 157.151C380.696 149.558 376.012 144.738 368.402 142.691ZM368.018 165.705C367.765 171.897 364.463 177.544 357.709 177.85C356.131 177.921 354.552 177.93 352.968 177.873C352.852 177.87 352.792 177.807 352.792 177.69V152.874C352.792 152.734 352.86 152.666 352.999 152.666C355.095 152.66 357.53 152.566 359.404 152.971C365.609 154.321 368.266 159.727 368.018 165.705Z" fill="white"/>
<path d="M420.452 177.893H404.387C404.307 177.893 404.245 177.83 404.245 177.75V171.014C404.245 170.934 404.307 170.871 404.387 170.871H418.399C418.478 170.874 418.541 170.811 418.541 170.731V159.773C418.541 159.693 418.478 159.63 418.399 159.63H404.387C404.307 159.63 404.245 159.567 404.245 159.487V152.809C404.245 152.729 404.307 152.666 404.387 152.666H419.349C419.428 152.666 419.491 152.603 419.491 152.523L419.485 141.579C419.485 141.499 419.423 141.436 419.343 141.436H390.09C390.011 141.433 389.948 141.496 389.948 141.576V188.994C389.948 189.074 390.011 189.137 390.09 189.137L420.441 189.151C420.52 189.151 420.583 189.088 420.583 189.008L420.594 178.036C420.594 177.955 420.532 177.893 420.452 177.893Z" fill="white"/>
<path d="M457.268 141.504C457.257 141.464 457.217 141.436 457.175 141.436H439.574C439.534 141.436 439.497 141.462 439.483 141.502L423.207 188.996C423.207 188.996 423.201 189.016 423.201 189.028C423.201 189.082 423.244 189.125 423.298 189.125L438.538 189.134C438.584 189.134 438.621 189.102 438.632 189.059L440.836 180.405C440.848 180.363 440.885 180.331 440.93 180.331H454.953C454.999 180.331 455.036 180.363 455.047 180.405L457.101 189.051C457.112 189.094 457.149 189.125 457.194 189.125H472.495C472.495 189.125 472.515 189.125 472.526 189.119C472.577 189.102 472.606 189.048 472.589 188.999L457.268 141.504ZM452.297 170.125L443.487 170.113C443.487 170.113 443.464 170.113 443.456 170.111C443.393 170.093 443.353 170.028 443.37 169.962L447.912 151.876C447.923 151.839 447.955 151.814 447.992 151.808C448.046 151.799 448.097 151.836 448.105 151.891C448.313 153.643 448.634 155.376 449.067 157.088C450.156 161.408 451.254 165.731 452.354 170.051C452.368 170.099 452.348 170.125 452.297 170.125Z" fill="white"/>
</svg>
